<svg width="150%" height="100%" viewBox="0 0 425 379" fill="none"
    xmlns="http://www.w3.org/2000/svg">
    <path d="M204.123 58.7397C202.948 59.1089 202.21 60.1157 201.253 60.8373C199.575 62.1126 197.679 61.8776 195.783 62.465C193.786 63.069 191.957 64.2772 190.648 65.9049C188.718 68.2877 187.577 72.2143 188.819 75.1509C186.772 76.6779 185.513 79.1949 185.782 81.7623C185.983 83.6752 186.956 85.4875 188.433 86.7293C190.447 88.4073 192.678 87.9207 192.913 85.1016C193.048 83.5913 194.004 83.8263 194.675 82.5677C195.347 81.3092 194.759 79.9332 195.145 78.6579C195.565 77.3155 196.857 76.5101 197.629 75.4026C198.686 73.8923 198.401 72.2814 199.038 70.7041C199.777 71.1068 201.119 72.2646 203.552 71.2243C204.861 70.6705 205.734 69.3449 206.371 68.0864C206.824 67.197 206.656 67.1467 207.663 67.1299C209.022 67.1131 210.164 66.5929 210.852 65.4015C211.858 63.7067 211.372 61.4581 210.08 60.0486C208.62 58.4041 206.153 58.1021 204.123 58.7397Z" fill="#EBF2FF"/>
    <path d="M183.802 114.014C186.352 115.323 189.289 114.903 191.89 113.964C194.34 113.074 196.605 111.698 198.501 109.92C199.928 108.594 203.753 104.835 200.783 103.224C199.525 102.553 197.696 102.805 196.387 103.157C194.91 103.543 193.501 104.265 192.175 105.02C189.373 106.614 182.409 113.292 183.802 114.014Z" fill="#EBF2FF"/>
    <path d="M211.154 120.223C213.067 118.914 214.342 116.85 215.651 115.004C217.027 113.074 218.537 111.228 220.165 109.517C221.692 107.889 223.403 106.446 224.897 104.802C226.407 103.124 228.219 100.724 228.085 98.3411C228.018 97.133 227.313 95.9919 226.071 95.7066C224.83 95.4214 223.521 96.059 223.185 97.3175C223.168 97.3343 223.151 97.3511 223.135 97.3847C221.943 99.2976 220.517 101.043 218.889 102.603C217.161 104.265 215.181 105.557 213.234 106.916C211.305 108.258 209.442 109.701 207.999 111.598C206.656 113.343 205.465 115.709 205.851 117.974C206.287 120.508 208.989 121.699 211.154 120.223Z" fill="#EBF2FF"/>
    <path d="M205.432 86.0412C205.784 84.4639 203.435 83.8766 202.176 83.8934C200.985 83.9101 198.955 84.8163 200.163 86.2426C201.555 87.8703 205.18 87.1991 205.432 86.0412Z" fill="#EBF2FF"/>
    <path d="M211.926 82.467C212.479 83.0039 213.62 82.8529 214.208 81.393C214.409 80.8896 214.107 80.0338 213.771 79.5304C212.479 77.4832 210.029 80.6715 211.926 82.467ZM214.174 81.0239V81.0071C214.174 81.0071 214.174 81.0071 214.174 81.0239Z" fill="#EBF2FF"/>
    <path d="M210.617 91.9647C211.472 92.1493 212.513 91.6962 213.033 91.0921C213.671 90.3706 213.419 89.2127 212.311 88.9778C211.17 88.7429 209.375 89.649 209.509 90.8069C209.576 91.3606 209.996 91.7969 210.6 91.9479C210.6 91.9647 210.6 91.9647 210.617 91.9647Z" fill="#EBF2FF"/>
    <path d="M236.71 113.829C235.317 116.665 233.824 120.877 236.995 122.119C237.465 122.303 238.136 122.085 238.472 121.733C241.593 118.394 244.462 114.836 247.013 111.044C249.362 107.554 251.997 103.593 253.02 99.4655C253.91 95.9249 252.534 94.3307 250.436 91.5284C248.221 88.5919 242.684 81.6616 242.365 81.6616C242.348 81.6448 242.348 81.6281 242.331 81.6113C241.442 79.8829 238.841 81.4099 239.73 83.1383C242.365 88.3066 245.318 94.1797 243.808 100.137C242.701 104.516 237.062 113.108 236.71 113.829Z" fill="#EBF2FF"/>
    <path d="M201.32 158.75C201.001 157.894 200.649 157.039 200.313 156.2C199.424 154.001 198.669 151.635 197.243 149.706C196.202 148.296 194.088 147.994 193.165 149.689C192.897 150.192 192.527 150.645 192.293 151.165C191.588 152.709 192.544 154.589 192.981 156.082C193.434 157.576 193.853 159.052 194.424 160.512C195.061 162.123 195.816 163.734 196.941 165.076C197.947 166.285 199.76 167.946 201.488 167.476C203.334 166.973 203.149 164.959 202.831 163.499C202.445 161.871 201.908 160.294 201.32 158.75Z" fill="#EBF2FF"/>
    <path d="M234.596 144.336C236.257 143.061 236.979 140.678 237.65 138.782C238.506 136.399 239.277 133.966 240.066 131.549C240.687 129.687 241.476 127.623 240.217 125.861C239.059 124.233 237.113 124.586 235.586 125.592C232.247 127.824 231.206 133.127 230.266 136.718C229.78 138.547 228.823 141.131 229.444 143.027C230.166 145.242 232.867 145.678 234.596 144.336Z" fill="#EBF2FF"/>
    <path d="M223.353 166.167C222.296 167.392 221.843 169.188 223.269 170.329C224.678 171.436 227.347 171.319 229.041 171.419C232.28 171.621 236.676 171.369 239.009 168.735C241.71 165.68 238.539 161.485 234.998 161.938C231.29 162.392 225.937 163.163 223.353 166.167Z" fill="#EBF2FF"/>
    <path d="M176.15 159.774C178.214 161.636 180.614 163.365 183.399 163.885C184.742 164.137 186.118 164.153 187.46 163.851C188.702 163.566 190.564 162.878 190.564 161.318C190.564 159.874 189.071 158.968 187.98 158.28C186.923 157.626 185.748 157.106 184.557 156.753C182.057 156.015 179.355 156.032 176.855 156.753C175.647 157.089 175.227 158.935 176.15 159.774Z" fill="#EBF2FF"/>
    <path d="M152.372 124.334C152.775 125.626 154.252 128.831 156.03 127.203C156.635 126.65 156.651 125.693 156.769 124.921C156.886 124.133 156.937 123.327 156.869 122.538C156.735 121.146 156.014 119.3 154.537 118.813C151.802 117.941 151.936 122.908 152.372 124.334Z" fill="#EBF2FF"/>
    <path d="M148.966 134.033C149.704 134.503 151.315 135.308 153.312 137.305C154.269 138.261 156.635 138.731 157.944 137.959C159.168 137.238 159.017 135.828 158.43 134.738C157.39 132.791 155.443 131.432 153.329 130.895C152.154 130.61 150.762 130.492 149.587 130.811C147.741 131.298 147.456 133.076 148.966 134.033Z" fill="#EBF2FF"/>
    <path d="M267.619 82.9033C269.297 82.3328 270.086 79.9835 270.472 78.4398C270.959 76.4932 270.942 74.4293 270.405 72.4995C270.103 71.3753 269.616 70.3013 268.978 69.3449C268.458 68.5562 267.569 67.0627 266.461 67.1634C265.488 67.2473 264.8 68.3548 264.397 69.1267C263.525 70.7544 263.038 72.6002 262.938 74.4461C262.82 76.8456 263.374 79.2788 264.599 81.3428C265.253 82.4503 266.243 83.3899 267.619 82.9033Z" fill="#EBF2FF"/>
    <path d="M226.222 49.0071C227.011 49.6951 227.968 50.2153 228.891 50.6516C230.451 51.4067 232.901 52.8666 234.596 51.8598C239.747 48.7386 230.401 40.9526 226.491 42.6642C224.847 43.3857 224.075 45.1812 224.679 46.876C224.981 47.715 225.551 48.4198 226.222 49.0071Z" fill="#EBF2FF"/>
    <path d="M152.406 233.406C151.55 238.003 151.517 242.752 152.372 247.35C152.775 249.531 153.497 255.908 156.618 255.891C160.007 255.874 162.743 251.008 164.051 248.508C165.931 244.917 167.156 241.024 167.676 236.997C168.196 232.986 167.995 228.892 167.089 224.948C166.619 222.851 165.948 220.82 165.075 218.857C164.521 217.582 163.615 214.964 162.424 214.209C159.856 212.565 157.943 219.042 157.188 220.585C155.158 224.697 153.262 228.841 152.406 233.406Z" fill="#EBF2FF"/>
    <path d="M197.209 249.431C198.585 253.324 200.918 256.781 203.384 260.053C204.475 261.496 205.599 262.905 206.69 264.332C207.68 265.624 208.771 267.554 210.516 267.889C214.191 268.594 214.442 262.402 214.627 260.137C214.979 255.942 214.493 251.679 213.268 247.635C211.12 240.588 206.421 233.188 199.525 229.999C198.082 229.328 195.934 228.17 195.011 230.05C194.289 231.51 194.86 234.144 194.944 235.671C195.162 240.353 195.649 245.034 197.209 249.431Z" fill="#EBF2FF"/>
    <path d="M236.827 185.431C236.576 181.957 229.981 180.43 227.347 179.709C223.252 178.568 218.99 178.115 214.761 177.829C210.113 177.527 205.465 177.494 200.817 177.125C198.485 176.94 196.152 176.688 193.853 176.269C191.521 175.849 191.336 175.9 190.027 177.494C189.373 178.299 188.316 179.356 189.91 180.195C191.135 180.833 193.367 179.507 194.843 179.658C198.854 180.044 202.294 182.629 206.354 182.998C208.418 183.199 210.482 182.964 212.546 182.947C214.829 182.931 216.926 183.384 219.124 183.971C223.37 185.129 227.582 186.404 231.81 187.595C229.008 189.374 226.256 191.237 223.554 193.167C222.749 193.754 216.322 197.764 220.114 198.754C221.339 199.073 222.816 197.429 223.739 196.758C225.048 195.801 226.373 194.861 227.699 193.938C229.142 192.948 235.25 190.196 234.109 188.032C235.569 188.099 236.945 186.975 236.827 185.431Z" fill="#EBF2FF"/>
    <path d="M199.659 197.798C200.213 199.66 203.133 198.855 202.579 196.992C201.555 193.586 199.676 190.498 197.109 188.032C195.699 186.689 193.568 188.82 194.977 190.163C197.159 192.277 198.77 194.878 199.659 197.798Z" fill="#EBF2FF"/>
    <path d="M247.315 260.523C247.399 260.422 246.124 260.64 245.99 260.707C245.318 261.043 244.697 262.284 244.295 262.905C243.355 264.298 242.533 265.741 241.811 267.251C240.788 269.383 239.042 272.873 241.828 274.433C243.087 275.138 244.815 274.366 245.922 275.038C247.08 275.726 246.678 277.706 247.03 278.897C247.97 282.052 251.208 282.874 254.145 283.042C257.299 283.226 260.119 282.001 260.79 278.662C261.444 275.423 259.749 272.017 258.206 269.282C257.182 267.453 250.352 256.663 247.315 260.523Z" fill="#EBF2FF"/>
    <path d="M186.52 266.245C185.614 266.245 185.111 266.949 185.01 267.755C184.523 271.698 183.701 275.591 182.594 279.4C181.486 283.176 179.741 286.851 179.338 290.811C179.171 292.556 179.355 294.67 181.419 295.124C182.946 295.459 184.54 294.603 185.43 293.395C186.503 291.935 186.889 290.106 187.242 288.361C187.645 286.347 187.963 284.317 188.182 282.27C188.668 277.806 188.685 273.309 188.249 268.862C188.215 268.577 188.131 268.309 187.997 268.091C188.014 267.973 188.03 267.872 188.047 267.772C188.131 266.949 187.275 266.245 186.52 266.245ZM182.006 292.17C182.006 292.17 182.09 292.17 182.191 292.17C182.225 292.237 181.889 293.378 182.006 292.17ZM182.292 292.304V292.288C182.409 292.304 182.09 292.573 182.292 292.304ZM182.308 292.288C182.308 292.254 182.308 292.221 182.308 292.17C182.443 292.187 182.51 292.204 182.308 292.288ZM183.903 289.418C183.735 290.073 183.533 290.727 183.181 291.314C183.064 291.516 182.946 291.717 182.778 291.868C182.644 291.986 182.459 292.019 182.308 292.086C182.308 291.919 182.292 291.717 182.292 291.734C182.308 290.928 182.426 290.157 182.594 289.368C183.248 286.398 184.44 283.562 185.346 280.659C185.111 283.629 184.641 286.566 183.903 289.418Z" fill="#EBF2FF"/>
    <path d="M190.245 304.219C190.531 301.483 185.463 303.463 184.188 303.564C180.697 303.866 177.794 302.641 174.589 301.55C172.106 300.711 169.287 298.866 169.169 302.071C168.767 313.498 157.356 314.27 149.268 316.972C145.257 318.314 140.995 321.083 139.25 325.227C138.663 326.637 137.773 329.439 139.77 330.06C140.71 330.345 142.371 329.976 143.328 329.909C144.737 329.825 146.13 329.741 147.54 329.657C158.279 329.003 169.018 328.332 179.758 327.677C182.627 327.493 185.513 327.409 188.366 327.14C192.125 326.805 190.85 320.999 190.464 318.65C189.658 313.817 189.742 309.135 190.245 304.219Z" fill="#EBF2FF"/>
    <path d="M266.998 283.428C266.881 283.495 266.763 283.562 266.629 283.663C265.186 284.686 263.776 285.727 262.249 286.599C258.658 288.646 254.849 289.72 250.872 290.66C248.959 291.113 249.228 292.053 249.161 293.613C248.976 297.506 246.761 301.92 244.68 305.108C242.516 308.43 239.311 311.031 236.962 314.253C235.804 315.83 234.83 317.592 234.428 319.522C234.109 321.066 233.807 324.388 235.653 325.16C237.18 325.798 239.646 323.868 240.888 323.063C250.906 316.619 260.689 309.823 270.69 303.379C272.653 302.121 275.456 300.93 277.016 299.168C279.617 296.231 275.355 292.271 273.694 290.039C272.368 288.294 270.086 281.75 266.998 283.428Z" fill="#EBF2FF"/>
    <path d="M133.545 332.074C134.35 332.208 135.173 331.872 135.408 331.017C135.609 330.295 135.156 329.288 134.35 329.154C128.276 328.198 122.168 328.214 116.093 329.204C114.717 329.422 113.325 329.674 111.915 329.523C110.472 329.355 109.113 328.768 107.687 328.483C104.767 327.895 101.881 328.298 99.1621 329.473C98.407 329.792 98.2392 330.899 98.6252 331.537C99.0782 332.309 99.934 332.409 100.689 332.074C103.122 331.017 105.74 331.017 108.24 331.721C109.583 332.107 110.908 332.493 112.318 332.56C113.744 332.628 115.171 332.376 116.563 332.158C122.185 331.268 127.924 331.184 133.545 332.074Z" fill="#EBF2FF"/>
    <path d="M113.022 339.306C111.596 339.306 110.17 339.306 108.727 339.306C106.78 339.306 106.78 342.326 108.727 342.326C110.153 342.326 111.579 342.326 113.022 342.326C114.969 342.326 114.969 339.306 113.022 339.306Z" fill="#EBF2FF"/>
    <path d="M142.069 336.252C138.663 336.705 135.24 336.806 131.816 336.52C128.997 336.286 125.608 335.195 123.074 337.007C122.403 337.477 122.101 338.316 122.537 339.071C122.923 339.726 123.93 340.095 124.601 339.608C125.608 338.886 126.782 338.954 127.974 339.071C129.467 339.222 130.961 339.474 132.454 339.574C135.659 339.793 138.881 339.692 142.069 339.256C142.875 339.155 143.579 338.635 143.579 337.745C143.579 337.024 142.875 336.135 142.069 336.252Z" fill="#EBF2FF"/>
    <path d="M220.702 330.178C221.507 330.043 221.96 329.053 221.759 328.315C221.524 327.459 220.702 327.124 219.896 327.258C212.278 328.6 204.458 325.362 196.958 327.996C195.128 328.634 195.917 331.554 197.763 330.916C201.404 329.641 205.23 329.859 209.006 330.161C212.916 330.48 216.809 330.849 220.702 330.178Z" fill="#EBF2FF"/>
    <path d="M177.157 334.91C174.925 335.296 172.643 334.557 170.445 334.222C168.079 333.869 165.646 333.819 163.565 335.161C161.937 336.202 163.447 338.819 165.092 337.762C166.854 336.621 168.968 336.99 170.915 337.343C173.264 337.779 175.563 338.215 177.962 337.813C178.768 337.678 179.221 336.688 179.019 335.95C178.785 335.111 177.962 334.775 177.157 334.91Z" fill="#EBF2FF"/>
    <path d="M187.846 339.272C186.57 339.424 185.312 339.591 184.037 339.742C183.231 339.843 182.526 340.363 182.526 341.253C182.526 341.991 183.214 342.863 184.037 342.763C185.312 342.612 186.57 342.444 187.846 342.293C188.651 342.192 189.356 341.672 189.356 340.783C189.356 340.044 188.651 339.172 187.846 339.272Z" fill="#EBF2FF"/>
    <path d="M139.905 344.743C139.586 344.894 139.267 345.062 138.948 345.213C138.629 345.381 138.344 345.766 138.26 346.119C138.159 346.488 138.21 346.958 138.411 347.277C138.881 347.998 139.72 348.2 140.475 347.814C140.794 347.663 141.113 347.495 141.432 347.344C141.75 347.176 142.036 346.79 142.12 346.438C142.22 346.069 142.17 345.599 141.968 345.28C141.499 344.575 140.66 344.374 139.905 344.743Z" fill="#EBF2FF"/>
    <path d="M262.669 326.855C251.376 326.519 240.083 326.788 228.807 327.644C228.001 327.711 227.296 328.298 227.296 329.154C227.296 329.926 227.984 330.731 228.807 330.664C240.066 329.808 251.376 329.54 262.669 329.875C264.616 329.943 264.616 326.922 262.669 326.855Z" fill="#EBF2FF"/>
    <path d="M303.63 327.157C292.219 326.117 280.725 326.133 269.314 327.191C268.509 327.258 267.804 327.828 267.804 328.701C267.804 329.456 268.492 330.295 269.314 330.211C280.725 329.154 292.219 329.137 303.63 330.178C304.435 330.245 305.14 329.422 305.14 328.667C305.14 327.795 304.452 327.241 303.63 327.157Z" fill="#EBF2FF"/>
    <path d="M292.471 333.634C291.8 333.433 291.145 333.567 290.524 333.836C290.206 333.97 289.92 334.406 289.836 334.742C289.736 335.111 289.786 335.581 289.987 335.9C290.189 336.218 290.508 336.504 290.894 336.588C291.162 336.655 291.38 336.638 291.615 336.588C292.085 337.074 292.857 337.259 293.461 336.873C294.132 336.437 294.451 335.514 293.998 334.809C293.646 334.238 293.125 333.819 292.471 333.634ZM291.833 336.521C291.85 336.521 291.85 336.521 291.867 336.504C291.85 336.521 291.85 336.521 291.833 336.521Z" fill="#EBF2FF"/>
    <path d="M276.496 332.342C271.881 332.208 267.267 332.057 262.652 331.923C260.706 331.856 260.706 334.876 262.652 334.943C267.267 335.077 271.881 335.228 276.496 335.363C278.443 335.43 278.443 332.409 276.496 332.342Z" fill="#EBF2FF"/>
    <path d="M261.243 343.115C258.071 343.115 254.883 343.115 251.712 343.115C249.765 343.115 249.765 346.136 251.712 346.136C254.883 346.136 258.071 346.136 261.243 346.136C263.189 346.136 263.189 343.115 261.243 343.115Z" fill="#EBF2FF"/>
    <path d="M231.24 336.286C226.323 335.732 221.373 335.916 216.49 336.789C215.684 336.94 215.231 337.913 215.433 338.652C215.668 339.491 216.49 339.843 217.295 339.709C221.893 338.887 226.608 338.786 231.24 339.306C232.045 339.407 232.75 338.551 232.75 337.796C232.75 336.89 232.045 336.37 231.24 336.286Z" fill="#EBF2FF"/>
    <path d="M252.651 335.648C254.598 335.648 254.598 332.628 252.651 332.628C250.722 332.628 250.705 335.648 252.651 335.648Z" fill="#EBF2FF"/>
    <path d="M209.291 333.114C208.972 333.114 208.653 333.114 208.335 333.114C207.546 333.114 206.791 333.802 206.824 334.624C206.858 335.447 207.496 336.135 208.335 336.135C208.653 336.135 208.972 336.135 209.291 336.135C210.08 336.135 210.835 335.447 210.801 334.624C210.768 333.802 210.13 333.114 209.291 333.114Z" fill="#EBF2FF"/>
    <path d="M129.065 110.775C131.783 114.249 134.518 117.706 137.27 121.146C138.545 122.74 139.703 125.072 141.448 126.213C145.039 128.596 150.174 123.025 147.775 119.484C146.734 117.941 145.425 116.581 144.536 114.954C143.58 113.208 143.512 111.144 142.489 109.45C141.281 107.453 137.874 102.1 135.005 103.107C132.907 103.862 126.9 108.007 129.065 110.775Z" fill="#EBF2FF"/>
    <path d="M196.001 84.4975C194.826 84.3297 193.635 85.2358 193.35 86.3937C193.064 87.5515 193.601 88.8268 194.524 89.5651C195.447 90.3202 196.706 90.572 197.897 90.4377" stroke="#003188" stroke-width="0.839014" stroke-miterlimit="10" stroke-linecap="round" stroke-linejoin="round"/>
    <path d="M195.48 87.2327C195.95 87.2327 196.42 87.3166 196.873 87.4676" stroke="#003188" stroke-width="0.839014" stroke-miterlimit="10" stroke-linecap="round" stroke-linejoin="round"/>
    <path d="M200.011 79.3627C200.75 78.2888 201.723 77.3994 202.864 76.7618" stroke="#003188" stroke-width="0.839014" stroke-miterlimit="10" stroke-linecap="round" stroke-linejoin="round"/>
    <path d="M203.015 80.6548C203.166 81.0575 203.368 81.4435 203.602 81.8126C203.552 81.3596 203.384 80.94 203.015 80.6548Z" stroke="#003188" stroke-width="0.839014" stroke-miterlimit="10" stroke-linecap="round" stroke-linejoin="round"/>
    <path d="M209.677 74.7985C208.955 74.5468 207.546 74.5803 206.791 74.7649C206.656 74.7985 206.539 74.8321 206.455 74.9495C206.371 75.0502 206.371 75.2012 206.388 75.3355C206.472 77.3994 207.428 79.3963 208.955 80.7891C209.408 81.2086 209.979 81.6952 209.861 82.3161C209.761 82.9034 209.056 83.3229 209.157 83.8934" stroke="#003188" stroke-width="0.839014" stroke-miterlimit="10" stroke-linecap="round" stroke-linejoin="round"/>
    <path d="M209.492 77.3491C209.543 77.6008 209.677 77.9532 209.845 78.3055C209.895 78.0538 209.643 77.5336 209.492 77.3491Z" stroke="#003188" stroke-width="0.839014" stroke-miterlimit="10" stroke-linecap="round" stroke-linejoin="round"/>
    <path d="M209.929 71.6606C211.405 74.5636 212.731 77.5337 213.906 80.5541C214.845 82.9537 215.684 85.4372 215.886 88.0046C215.97 88.9778 215.936 89.9847 215.567 90.8908C215.08 92.0654 214.057 92.9548 212.916 93.475C211.758 93.9951 210.499 94.1797 209.224 94.2636C207.848 94.3475 206.455 94.314 205.079 94.1462" stroke="#003188" stroke-width="0.839014" stroke-miterlimit="10" stroke-linecap="round" stroke-linejoin="round"/>
    <path d="M197.88 92.0654C199.575 95.8242 200.783 99.8179 201.438 103.896" stroke="#003188" stroke-width="0.839014" stroke-miterlimit="10" stroke-linecap="round" stroke-linejoin="round"/>
    <path d="M214.929 92.5688C215.634 94.0622 216.456 95.4886 217.396 96.831" stroke="#003188" stroke-width="0.839014" stroke-miterlimit="10" stroke-linecap="round" stroke-linejoin="round"/>
    <path d="M211.439 85.4372C209.962 85.6218 208.62 86.5615 207.932 87.8871C207.797 88.1556 207.747 88.5751 208.016 88.6758C208.167 88.7261 208.318 88.659 208.452 88.5751C209.425 88.0549 210.398 87.5347 211.372 86.9978" stroke="#003188" stroke-width="0.839014" stroke-miterlimit="10" stroke-linecap="round" stroke-linejoin="round"/>
    <path d="M187.862 118.612C186.956 125.811 186.067 133.06 186.554 140.292C186.822 144.42 187.527 148.514 188.232 152.609C189.473 159.824 190.732 167.023 191.974 174.238" stroke="#003188" stroke-width="0.839014" stroke-miterlimit="10" stroke-linecap="round" stroke-linejoin="round"/>
    <path d="M193.551 149.823C193.534 156.183 196.135 162.526 200.632 167.04" stroke="#003188" stroke-width="0.839014" stroke-miterlimit="10" stroke-linecap="round" stroke-linejoin="round"/>
    <path d="M197.394 157.81C198.837 160.294 200.498 162.643 202.361 164.825" stroke="#003188" stroke-width="0.839014" stroke-miterlimit="10" stroke-linecap="round" stroke-linejoin="round"/>
    <path d="M226.037 95.3711C225.182 100.204 221.339 103.912 217.446 106.882C213.553 109.869 209.257 112.621 206.723 116.816" stroke="#003188" stroke-width="0.839014" stroke-miterlimit="10" stroke-linecap="round" stroke-linejoin="round"/>
    <path d="M218.788 108.057C216.036 110.725 213.788 113.913 212.177 117.387" stroke="#003188" stroke-width="0.839014" stroke-miterlimit="10" stroke-linecap="round" stroke-linejoin="round"/>
    <path d="M201.354 104.651C206.153 105.49 210.885 103.09 214.912 100.355C216.154 99.4991 217.513 98.4084 217.563 96.8981" stroke="#003188" stroke-width="0.839014" stroke-miterlimit="10" stroke-linecap="round" stroke-linejoin="round"/>
    <path d="M200.163 103.459C195.934 103.006 191.688 104.869 188.517 107.688C185.329 110.507 183.08 114.232 181.167 118.024C178.734 122.891 176.771 128.009 175.344 133.261C178.65 133.143 181.973 134.335 184.456 136.516" stroke="#003188" stroke-width="0.839014" stroke-miterlimit="10" stroke-linecap="round" stroke-linejoin="round"/>
    <path d="M218.956 95.9249C225.954 91.025 233.001 86.1923 240.083 81.4099" stroke="#003188" stroke-width="0.839014" stroke-miterlimit="10" stroke-linecap="round" stroke-linejoin="round"/>
    <path d="M239.026 78.4398C247.08 85.5547 253.39 94.616 257.249 104.651" stroke="#003188" stroke-width="0.839014" stroke-miterlimit="10" stroke-linecap="round" stroke-linejoin="round"/>
    <path d="M253.138 99.8011C250.033 108.174 243.808 114.954 238.673 122.253" stroke="#003188" stroke-width="0.839014" stroke-miterlimit="10" stroke-linecap="round" stroke-linejoin="round"/>
    <path d="M244.026 117.941C239.176 130.106 243.271 143.782 242.851 156.871C242.583 165.278 240.435 173.517 238.287 181.655" stroke="#003188" stroke-width="0.839014" stroke-miterlimit="10" stroke-linecap="round" stroke-linejoin="round"/>
    <path d="M239.697 125.307C238.254 130.207 237.314 135.241 236.928 140.325" stroke="#003188" stroke-width="0.839014" stroke-miterlimit="10" stroke-linecap="round" stroke-linejoin="round"/>
    <path d="M235.384 130.626C234.008 133.597 232.632 136.583 231.273 139.554" stroke="#003188" stroke-width="0.839014" stroke-miterlimit="10" stroke-linecap="round" stroke-linejoin="round"/>
    <path d="M236.827 164.254C233.723 164.489 230.669 165.177 227.766 166.301C226.541 166.771 225.249 167.426 224.695 168.617C227.9 169.003 231.105 169.221 234.327 169.271" stroke="#003188" stroke-width="0.839014" stroke-miterlimit="10" stroke-linecap="round" stroke-linejoin="round"/>
    <path d="M191.99 174.792C200.465 177.98 209.912 176.621 218.856 177.98C224.93 178.903 230.753 181.085 236.509 183.249" stroke="#003188" stroke-width="0.839014" stroke-miterlimit="10" stroke-linecap="round" stroke-linejoin="round"/>
    <path d="M244.194 79.111C246.207 76.8625 248.59 74.9663 251.225 73.5064C251.896 73.1372 252.651 72.7681 253.406 72.8688C253.691 72.9023 253.977 73.0198 254.128 73.2547C254.446 73.7245 254.01 74.3958 253.456 74.5132C252.903 74.6307 252.349 74.3622 251.879 74.0602C249.53 72.5499 248.003 70.0832 246.241 67.9186C243.053 63.992 238.035 60.2164 233.37 58.2867" stroke="#003188" stroke-width="0.839014" stroke-miterlimit="10" stroke-linecap="round" stroke-linejoin="round"/>
    <path d="M238.975 48.487C246.476 54.9978 255.671 59.176 263.793 64.8813C265.723 66.2405 267.602 67.7004 269.029 69.563C270.455 71.4257 271.395 73.7749 271.193 76.1074C270.958 78.8258 269.247 81.175 267.552 83.3061C264.045 87.7025 260.269 91.8976 256.259 95.841" stroke="#003188" stroke-width="0.839014" stroke-miterlimit="10" stroke-linecap="round" stroke-linejoin="round"/>
    <path d="M267.451 72.1136C267.82 72.9527 267.804 73.9595 267.418 74.7817" stroke="#003188" stroke-width="0.839014" stroke-miterlimit="10" stroke-linecap="round" stroke-linejoin="round"/>
    <path d="M228.823 51.0712C227.581 50.0979 225.954 49.6113 224.376 49.7455C223.806 49.7959 223.252 49.9133 222.682 49.863C222.195 49.8126 221.725 49.6281 221.255 49.477C219.93 49.0407 218.319 48.8897 217.262 49.8126C217.127 49.9301 217.01 50.0643 216.993 50.2321C216.959 50.551 217.262 50.7859 217.547 50.9537C221.155 53.1016 224.93 54.981 228.823 56.5583C229.377 56.7765 229.931 57.0114 230.535 57.0282C231.122 57.0617 231.76 56.8436 232.112 56.3737" stroke="#003188" stroke-width="0.839014" stroke-miterlimit="10" stroke-linecap="round" stroke-linejoin="round"/>
    <path d="M221.725 46.9768C222.514 45.6176 223.42 44.3255 224.393 43.0837" stroke="#003188" stroke-width="0.839014" stroke-miterlimit="10" stroke-linecap="round" stroke-linejoin="round"/>
    <path d="M217.01 39.3417C217.261 38.5866 218.033 38.4524 218.822 38.3349C219.611 38.2175 220.399 38.4188 221.154 38.6537C222.715 39.1572 224.208 39.8955 225.551 40.8352" stroke="#003188" stroke-width="0.839014" stroke-miterlimit="10" stroke-linecap="round" stroke-linejoin="round"/>
    <path d="M227.9 40.7681C229.629 41.6071 231.357 42.4461 233.086 43.3019C233.673 43.5872 234.26 43.8892 234.797 44.2919C236.223 45.3659 237.096 47.1446 237.046 48.9401" stroke="#003188" stroke-width="0.839014" stroke-miterlimit="10" stroke-linecap="round" stroke-linejoin="round"/>
    <path d="M216.926 48.1011C215.567 47.1781 213.905 46.8258 212.429 46.121C211.372 45.6176 210.415 44.9464 209.475 44.2416C209.274 44.0906 209.073 43.9228 209.022 43.6878C208.905 43.2012 209.459 42.8488 209.928 42.7146C210.902 42.4629 211.959 42.5971 212.848 43.067" stroke="#003188" stroke-width="0.839014" stroke-miterlimit="10" stroke-linecap="round" stroke-linejoin="round"/>
    <path d="M214.056 43.3019C216.204 43.8053 218.335 44.4094 220.416 45.1142" stroke="#003188" stroke-width="0.839014" stroke-miterlimit="10" stroke-linecap="round" stroke-linejoin="round"/>
    <path d="M210.163 41.4393C210.197 41.1708 210.499 41.0533 210.767 41.0198C212.143 40.768 213.603 40.9694 214.879 41.5567" stroke="#003188" stroke-width="0.839014" stroke-miterlimit="10" stroke-linecap="round" stroke-linejoin="round"/>
    <path d="M212.697 39.3921C213.133 38.8383 213.989 38.8887 214.694 39.0061C218 39.627 221.188 40.852 224.057 42.6307" stroke="#003188" stroke-width="0.839014" stroke-miterlimit="10" stroke-linecap="round" stroke-linejoin="round"/>
    <path d="M153.278 127.875C151.952 125.777 151.147 123.361 150.979 120.877C150.912 119.988 150.912 119.048 150.476 118.276C149.637 116.783 147.556 116.514 146.381 115.273C145.995 114.853 145.744 114.131 146.18 113.779C146.365 113.628 146.599 113.595 146.834 113.578C148.915 113.444 150.878 114.434 152.674 115.491C153.597 116.044 154.537 116.632 155.174 117.504C155.711 118.226 155.996 119.098 156.265 119.954C156.936 122.119 157.456 124.3 157.993 126.499" stroke="#003188" stroke-width="0.839014" stroke-miterlimit="10" stroke-linecap="round" stroke-linejoin="round"/>
    <path d="M145.895 132.707C146.717 133.076 147.539 133.446 148.362 133.815" stroke="#003188" stroke-width="0.839014" stroke-miterlimit="10" stroke-linecap="round" stroke-linejoin="round"/>
    <path d="M151.315 135.308C159.084 144.319 167.709 152.592 177.022 159.992C178.499 161.167 179.992 162.324 181.704 163.113C183.416 163.902 185.345 164.321 187.191 163.919" stroke="#003188" stroke-width="0.839014" stroke-miterlimit="10" stroke-linecap="round" stroke-linejoin="round"/>
    <path d="M159.52 128.076C161.685 130.929 164.873 132.808 168.095 134.352C171.317 135.896 174.69 137.188 177.677 139.151C180.059 140.728 182.157 142.725 183.852 145.024" stroke="#003188" stroke-width="0.839014" stroke-miterlimit="10" stroke-linecap="round" stroke-linejoin="round"/>
    <path d="M175.244 135.996C175.294 135.593 175.328 135.174 175.378 134.771" stroke="#003188" stroke-width="0.839014" stroke-miterlimit="10" stroke-linecap="round" stroke-linejoin="round"/>
    <path d="M128.51 122.807C130.725 123.931 133.092 124.753 135.508 125.223" stroke="#003188" stroke-width="0.839014" stroke-miterlimit="10" stroke-linecap="round" stroke-linejoin="round"/>
    <path d="M131.581 126.666C133.511 127.136 135.424 127.589 137.354 128.059" stroke="#003188" stroke-width="0.839014" stroke-miterlimit="10" stroke-linecap="round" stroke-linejoin="round"/>
    <path d="M134.77 129.435C136.297 129.569 137.807 129.72 139.334 129.855" stroke="#003188" stroke-width="0.839014" stroke-miterlimit="10" stroke-linecap="round" stroke-linejoin="round"/>
    <path d="M132.202 121.649C131.363 121.213 130.524 120.776 129.786 120.172C129.064 119.568 128.443 118.78 128.209 117.873C128.158 117.672 128.158 117.404 128.343 117.32" stroke="#003188" stroke-width="0.839014" stroke-miterlimit="10" stroke-linecap="round" stroke-linejoin="round"/>
    <path d="M190.061 176.42C181.973 187.008 173.884 197.58 165.813 208.168C159.772 216.072 153.53 224.428 151.919 234.245C150.291 244.162 153.597 254.129 156.081 263.862C158.95 275.122 160.762 286.65 161.484 298.245" stroke="#003188" stroke-width="0.839014" stroke-miterlimit="10" stroke-linecap="round" stroke-linejoin="round"/>
    <path d="M163.883 299.486C167.038 298.11 170.679 298.933 173.935 300.074C177.173 301.215 180.429 302.692 183.869 302.591C186.939 302.507 190.228 301.198 192.913 302.675" stroke="#003188" stroke-width="0.839014" stroke-miterlimit="10" stroke-linecap="round" stroke-linejoin="round"/>
    <path d="M195.162 214.176C191.017 222.28 186.889 230.385 182.744 238.473C182.526 238.91 182.275 239.363 181.838 239.598C180.899 240.101 179.674 238.977 179.892 237.936C180.093 236.896 181.301 236.258 182.358 236.376C183.416 236.493 184.322 237.198 185.027 238.004C187.493 240.806 188.013 244.766 188.433 248.458C190.329 265.372 192.242 282.287 194.138 299.201" stroke="#003188" stroke-width="0.839014" stroke-miterlimit="10" stroke-linecap="round" stroke-linejoin="round"/>
    <path d="M187.007 268.124C187.275 272.403 187.174 276.749 186.05 280.894C185.329 283.562 184.204 286.096 183.08 288.63C182.392 290.19 181.687 291.751 180.999 293.311" stroke="#003188" stroke-width="0.839014" stroke-miterlimit="10" stroke-linecap="round" stroke-linejoin="round"/>
    <path d="M186.738 286.7C186.688 289.301 186.134 291.902 185.144 294.301" stroke="#003188" stroke-width="0.839014" stroke-miterlimit="10" stroke-linecap="round" stroke-linejoin="round"/>
    <path d="M153.849 241.259C156.282 243.105 158.933 244.665 161.719 245.89" stroke="#003188" stroke-width="0.839014" stroke-miterlimit="10" stroke-linecap="round" stroke-linejoin="round"/>
    <path d="M195.296 189.911C196.068 193.234 199.844 195.264 200.481 198.62C200.716 199.896 200.464 201.204 200.213 202.48C198.904 208.974 197.595 215.484 196.286 221.978C194.625 230.251 192.964 238.893 195.195 247.031C196.857 253.055 200.532 258.308 204.425 263.208C214.61 276.011 226.642 287.203 238.606 298.329" stroke="#003188" stroke-width="0.839014" stroke-miterlimit="10" stroke-linecap="round" stroke-linejoin="round"/>
    <path d="M241.458 296.852C243.137 293.932 246.157 291.986 249.278 290.71C252.399 289.435 255.722 288.68 258.86 287.472C262.434 286.096 265.79 284.099 268.71 281.615" stroke="#003188" stroke-width="0.839014" stroke-miterlimit="10" stroke-linecap="round" stroke-linejoin="round"/>
    <path d="M267.938 278.327C255.52 261.899 241.492 246.696 226.105 232.986C225.198 232.181 223.806 231.375 222.933 232.198C221.826 233.238 223.772 235.134 225.165 234.496C226.558 233.859 227.028 232.164 227.346 230.671C230.367 216.357 233.387 202.043 236.408 187.747" stroke="#003188" stroke-width="0.839014" stroke-miterlimit="10" stroke-linecap="round" stroke-linejoin="round"/>
    <path d="M199.609 189.626C200.448 186.119 202.142 182.813 204.475 180.061" stroke="#003188" stroke-width="0.839014" stroke-miterlimit="10" stroke-linecap="round" stroke-linejoin="round"/>
    <path d="M233.605 187.31C229.427 190.666 224.93 193.62 220.215 196.154" stroke="#003188" stroke-width="0.839014" stroke-miterlimit="10" stroke-linecap="round" stroke-linejoin="round"/>
    <path d="M233.236 190.347C229.343 193.334 225.383 196.237 221.339 199.023" stroke="#003188" stroke-width="0.839014" stroke-miterlimit="10" stroke-linecap="round" stroke-linejoin="round"/>
    <path d="M250.05 261.882C249.815 266.983 249.58 272.067 249.345 277.169C249.295 278.226 249.614 279.669 250.654 279.635C251.174 279.619 251.577 279.216 251.913 278.813C253.238 277.219 254.296 275.407 255.017 273.477C255.588 271.967 256.192 270.121 257.769 269.718C258.272 273.242 258.407 276.816 258.155 280.374" stroke="#003188" stroke-width="0.839014" stroke-miterlimit="10" stroke-linecap="round" stroke-linejoin="round"/>
    <path d="M245.654 263.979C244.529 266.547 243.204 269.03 241.694 271.396" stroke="#003188" stroke-width="0.839014" stroke-miterlimit="10" stroke-linecap="round" stroke-linejoin="round"/>
    <path d="M198.3 245.454C200.632 246.092 203.082 246.327 205.499 246.125" stroke="#003188" stroke-width="0.839014" stroke-miterlimit="10" stroke-linecap="round" stroke-linejoin="round"/>
    <path d="M169.169 302.087C169.924 305.074 168.548 308.296 166.316 310.41C164.085 312.525 161.115 313.699 158.161 314.522C155.191 315.344 152.154 315.898 149.268 316.988C146.348 318.096 143.613 319.807 141.549 322.173C139.485 324.539 138.142 327.577 138.092 330.698" stroke="#003188" stroke-width="0.839014" stroke-miterlimit="10" stroke-linecap="round" stroke-linejoin="round"/>
    <path d="M138.763 330.715C156.349 330.681 173.918 330.211 191.47 329.305" stroke="#003188" stroke-width="0.839014" stroke-miterlimit="10" stroke-linecap="round" stroke-linejoin="round"/>
    <path d="M139.921 326.603C155.946 326.251 172.978 325.714 189.003 325.664" stroke="#003188" stroke-width="0.839014" stroke-miterlimit="10" stroke-linecap="round" stroke-linejoin="round"/>
    <path d="M190.799 304.42C190.967 312.256 190.917 320.109 190.682 327.946" stroke="#003188" stroke-width="0.839014" stroke-miterlimit="10" stroke-linecap="round" stroke-linejoin="round"/>
    <path d="M169.555 308.783C171.468 308.799 173.398 309.068 175.243 309.588" stroke="#003188" stroke-width="0.839014" stroke-miterlimit="10" stroke-linecap="round" stroke-linejoin="round"/>
    <path d="M166.92 311.753C169.102 311.434 171.334 311.568 173.465 312.122" stroke="#003188" stroke-width="0.839014" stroke-miterlimit="10" stroke-linecap="round" stroke-linejoin="round"/>
    <path d="M166.098 326.318C166.098 327.51 166.098 328.718 166.098 329.909" stroke="#003188" stroke-width="0.839014" stroke-miterlimit="10" stroke-linecap="round" stroke-linejoin="round"/>
    <path d="M168.615 326.318C168.666 327.728 168.716 328.651 168.767 330.06" stroke="#003188" stroke-width="0.839014" stroke-miterlimit="10" stroke-linecap="round" stroke-linejoin="round"/>
    <path d="M150.795 326.452C150.896 327.61 150.98 328.751 151.08 329.909" stroke="#003188" stroke-width="0.839014" stroke-miterlimit="10" stroke-linecap="round" stroke-linejoin="round"/>
    <path d="M144.972 326.452C144.905 327.51 144.938 328.583 145.089 329.641" stroke="#003188" stroke-width="0.839014" stroke-miterlimit="10" stroke-linecap="round" stroke-linejoin="round"/>
    <path d="M182.442 325.798C182.442 326.721 182.442 327.661 182.442 328.583" stroke="#003188" stroke-width="0.839014" stroke-miterlimit="10" stroke-linecap="round" stroke-linejoin="round"/>
    <path d="M248.272 293.328C248.976 296.449 247.718 299.738 245.838 302.339C243.959 304.94 241.476 307.021 239.294 309.37C236.978 311.87 234.965 314.723 234.008 317.978C233.052 321.234 233.236 324.942 235.082 327.812" stroke="#003188" stroke-width="0.839014" stroke-miterlimit="10" stroke-linecap="round" stroke-linejoin="round"/>
    <path d="M235.871 327.375C250.201 318.129 264.531 308.9 278.862 299.654" stroke="#003188" stroke-width="0.839014" stroke-miterlimit="10" stroke-linecap="round" stroke-linejoin="round"/>
    <path d="M233.857 323.952C247.415 314.387 261.41 305.46 275.791 297.221" stroke="#003188" stroke-width="0.839014" stroke-miterlimit="10" stroke-linecap="round" stroke-linejoin="round"/>
    <path d="M268.374 282.824C272.368 287.774 275.942 293.076 279.013 298.648" stroke="#003188" stroke-width="0.839014" stroke-miterlimit="10" stroke-linecap="round" stroke-linejoin="round"/>
    <path d="M248.07 299.033C249.597 297.859 251.325 296.953 253.138 296.332" stroke="#003188" stroke-width="0.839014" stroke-miterlimit="10" stroke-linecap="round" stroke-linejoin="round"/>
    <path d="M246.526 301.97C248.322 300.611 250.369 299.587 252.517 298.949" stroke="#003188" stroke-width="0.839014" stroke-miterlimit="10" stroke-linecap="round" stroke-linejoin="round"/>
    <path d="M243.858 317.307C244.496 318.482 245.117 319.656 245.755 320.831" stroke="#003188" stroke-width="0.839014" stroke-miterlimit="10" stroke-linecap="round" stroke-linejoin="round"/>
    <path d="M246.711 315.193C247.449 316.418 248.188 317.626 248.909 318.851" stroke="#003188" stroke-width="0.839014" stroke-miterlimit="10" stroke-linecap="round" stroke-linejoin="round"/>
    <path d="M265.203 303.514C265.622 304.873 266.209 306.199 266.948 307.407" stroke="#003188" stroke-width="0.839014" stroke-miterlimit="10" stroke-linecap="round" stroke-linejoin="round"/>
    <path d="M271.244 300.007C271.63 300.846 272.016 301.701 272.418 302.54" stroke="#003188" stroke-width="0.839014" stroke-miterlimit="10" stroke-linecap="round" stroke-linejoin="round"/>
    <path d="M259.749 307.205C260.034 308.296 260.303 309.404 260.588 310.494" stroke="#003188" stroke-width="0.839014" stroke-miterlimit="10" stroke-linecap="round" stroke-linejoin="round"/>
    <path d="M260.018 175.413C264.213 174.641 268.122 172.544 271.16 169.54C272.133 168.584 273.022 167.493 273.509 166.218C273.996 164.942 273.996 163.432 273.257 162.274C272.519 161.116 270.958 160.479 269.7 161.032C268.458 161.586 267.921 163.449 268.861 164.439C269.482 165.093 270.472 165.211 271.361 165.144C274.029 164.942 276.412 163.382 278.392 161.586C280.808 159.405 282.872 156.821 284.45 153.968" stroke="#003188" stroke-width="0.839014" stroke-miterlimit="10" stroke-linecap="round" stroke-linejoin="round"/>
    <path d="M281.614 92.1493C283.393 87.8703 286.95 84.3968 291.229 82.6516C296.381 80.5541 302.153 81.7119 307.355 79.8325C309.822 78.9432 312.087 77.5169 313.983 75.7046" stroke="#003188" stroke-width="0.839014" stroke-miterlimit="10" stroke-linecap="round" stroke-linejoin="round"/>
    <path d="M284.668 95.1362C287.269 91.4445 291.447 88.9107 295.911 88.273C298.445 87.9207 301.062 88.1388 303.563 87.6186C305.627 87.1823 307.556 86.2594 309.452 85.3533" stroke="#003188" stroke-width="0.839014" stroke-miterlimit="10" stroke-linecap="round" stroke-linejoin="round"/>
    <path d="M261.209 230.217C263.374 227.398 266.193 225.133 269.247 223.338C272.351 221.525 275.69 220.166 279.097 219.025C282.889 217.75 286.749 216.743 290.558 215.568C294.367 214.394 298.159 213.034 301.683 211.121C304.855 209.393 307.774 207.212 310.358 204.661C310.677 204.342 310.979 204.04 311.298 203.705" stroke="#003188" stroke-width="0.839014" stroke-miterlimit="10" stroke-linecap="round" stroke-linejoin="round"/>
    <path d="M265.035 236.98C270.388 230.469 278.275 226.61 286.178 223.64" stroke="#003188" stroke-width="0.839014" stroke-miterlimit="10" stroke-linecap="round" stroke-linejoin="round"/>
    <path d="M246.627 239.866C246.375 239.9 246.342 240.336 246.577 240.42C246.812 240.504 247.063 240.168 246.895 239.967" stroke="#003188" stroke-width="0.839014" stroke-miterlimit="10" stroke-linecap="round" stroke-linejoin="round"/>
    <path d="M175.982 107.067C175.865 107.184 175.73 107.319 175.613 107.436" stroke="#003188" stroke-width="0.839014" stroke-miterlimit="10" stroke-linecap="round" stroke-linejoin="round"/>
    <path d="M165.31 194.207C165.125 194.241 165.142 193.855 165.327 193.905" stroke="#003188" stroke-width="0.839014" stroke-miterlimit="10" stroke-linecap="round" stroke-linejoin="round"/>
    <path d="M147.623 311.065C147.472 311.065 147.321 311.065 147.187 311.065" stroke="#003188" stroke-width="0.839014" stroke-miterlimit="10" stroke-linecap="round" stroke-linejoin="round"/>
    <path d="M112.905 176.504C119.533 178.752 126.984 175.447 131.867 170.429C133.276 168.986 134.552 167.359 135.156 165.429C135.743 163.499 135.542 161.234 134.233 159.724C132.907 158.197 130.357 157.76 128.83 159.069C126.749 160.848 127.839 164.607 130.273 165.899C132.706 167.191 135.676 166.62 138.243 165.63C141.583 164.338 144.637 162.375 147.204 159.891" stroke="#003188" stroke-width="0.839014" stroke-miterlimit="10" stroke-linecap="round" stroke-linejoin="round"/>
    <path d="M104.565 232.986C106.243 228.691 109.716 225.2 113.878 223.22C118.04 221.24 122.822 220.72 127.369 221.441C130.239 221.895 133.142 222.851 136.011 222.364C139.048 221.844 141.599 219.814 143.982 217.85" stroke="#003188" stroke-width="0.839014" stroke-miterlimit="10" stroke-linecap="round" stroke-linejoin="round"/>
    <path d="M108.575 234.329C110.371 231.644 113.073 229.58 116.127 228.539" stroke="#003188" stroke-width="0.839014" stroke-miterlimit="10" stroke-linecap="round" stroke-linejoin="round"/>
    <path d="M150.275 124.669L144.267 128.999C143.328 129.687 142.002 129.519 141.247 128.63L126.447 111.212C125.608 110.222 125.775 108.711 126.832 107.94L135.323 101.798C136.263 101.11 137.589 101.278 138.344 102.167L145.945 111.111" stroke="#003188" stroke-width="0.839014" stroke-miterlimit="10" stroke-linecap="round" stroke-linejoin="round"/>
    <path d="M124.937 111.916L141.885 131.382" stroke="#003188" stroke-width="0.839014" stroke-miterlimit="10" stroke-linecap="round" stroke-linejoin="round"/>
    <path d="M143.562 131.885L150.946 126.515" stroke="#003188" stroke-width="0.839014" stroke-miterlimit="10" stroke-linecap="round" stroke-linejoin="round"/>
    <path d="M131.145 107.386L133.83 105.372" stroke="#003188" stroke-width="0.839014" stroke-miterlimit="10" stroke-linecap="round" stroke-linejoin="round"/>
    <path d="M138.428 97.4183C137.908 95.6563 137.74 93.7769 137.924 91.9479" stroke="#003188" stroke-width="0.839014" stroke-miterlimit="10" stroke-linecap="round" stroke-linejoin="round"/>
    <path d="M143.21 98.4083C143.478 96.8981 143.864 95.4047 144.351 93.9615" stroke="#003188" stroke-width="0.839014" stroke-miterlimit="10" stroke-linecap="round" stroke-linejoin="round"/>
    <path d="M146.348 100.674C147.59 99.7844 148.815 98.8614 150.006 97.8882" stroke="#003188" stroke-width="0.839014" stroke-miterlimit="10" stroke-linecap="round" stroke-linejoin="round"/>
    <path d="M100.152 330.228C101.964 328.869 104.414 328.399 106.612 329.003C107.871 329.339 109.045 330.027 110.337 330.245C113.157 330.715 115.942 328.986 118.778 329.188C119.852 329.272 120.892 329.624 121.966 329.708C123.393 329.809 124.802 329.423 126.212 329.204C129.551 328.667 132.957 329.02 136.33 329.389" stroke="#003188" stroke-width="0.839014" stroke-miterlimit="10" stroke-linecap="round" stroke-linejoin="round"/>
    <path d="M197.276 329.322C199.407 328.382 201.773 327.996 204.089 328.214C205.264 328.315 206.438 328.584 207.63 328.55C208.603 328.516 209.559 328.298 210.533 328.164C212.966 327.828 215.449 328.08 217.882 328.332C218.99 328.449 220.081 328.567 221.188 328.667" stroke="#003188" stroke-width="0.839014" stroke-miterlimit="10" stroke-linecap="round" stroke-linejoin="round"/>
    <path d="M229.326 328.617C233.756 328.097 238.237 327.778 242.7 328.181C243.724 328.265 244.731 328.399 245.754 328.281C247.583 328.063 249.278 327.04 251.124 327.006C252.517 326.989 253.859 327.526 255.235 327.526C256.343 327.526 257.433 327.157 258.541 327.023C259.648 326.872 260.89 326.989 261.679 327.778" stroke="#003188" stroke-width="0.839014" stroke-miterlimit="10" stroke-linecap="round" stroke-linejoin="round"/>
    <path d="M270.103 328.533C271.613 327.745 273.408 327.51 275.086 327.845C276.345 328.114 277.57 328.701 278.862 328.651C280.775 328.584 282.369 327.14 284.265 326.872C286.161 326.587 288.024 327.51 289.937 327.627C291.179 327.694 292.404 327.442 293.629 327.342C295.357 327.208 297.085 327.392 298.814 327.593C300.659 327.795 302.505 327.996 304.351 328.214" stroke="#003188" stroke-width="0.839014" stroke-miterlimit="10" stroke-linecap="round" stroke-linejoin="round"/>
    <path d="M262.87 334.003C264.8 332.745 267.384 332.577 269.448 333.601C269.683 333.718 269.935 333.852 270.187 333.852C270.438 333.869 270.673 333.752 270.908 333.668C273.157 332.795 275.791 332.997 277.872 334.205" stroke="#003188" stroke-width="0.839014" stroke-miterlimit="10" stroke-linecap="round" stroke-linejoin="round"/>
    <path d="M251.426 334.306C252.198 334.138 253.02 334.171 253.775 334.406" stroke="#003188" stroke-width="0.839014" stroke-miterlimit="10" stroke-linecap="round" stroke-linejoin="round"/>
    <path d="M251.09 345.062C252.433 344.29 254.195 344.256 255.571 344.978C256.007 345.196 256.41 345.498 256.896 345.565C257.249 345.615 257.601 345.515 257.953 345.448C259.229 345.213 260.571 345.313 261.796 345.766" stroke="#003188" stroke-width="0.839014" stroke-miterlimit="10" stroke-linecap="round" stroke-linejoin="round"/>
    <path d="M216.59 338.937C218.654 337.628 221.356 337.393 223.621 338.316C223.94 338.45 224.242 338.601 224.595 338.618C225.014 338.652 225.434 338.484 225.819 338.316C227.145 337.762 228.639 337.242 229.981 337.746C231.038 338.131 232.079 339.138 233.119 338.668" stroke="#003188" stroke-width="0.839014" stroke-miterlimit="10" stroke-linecap="round" stroke-linejoin="round"/>
    <path d="M182.577 341.034C184.691 340.414 186.99 340.397 189.121 340.984" stroke="#003188" stroke-width="0.839014" stroke-miterlimit="10" stroke-linecap="round" stroke-linejoin="round"/>
    <path d="M206.875 334.725C207.747 334.356 208.771 334.406 209.61 334.843" stroke="#003188" stroke-width="0.839014" stroke-miterlimit="10" stroke-linecap="round" stroke-linejoin="round"/>
    <path d="M163.766 336.386C165.545 334.977 168.196 334.792 170.159 335.917C170.478 336.101 170.814 336.336 171.183 336.353C171.468 336.37 171.77 336.269 172.039 336.185C173.75 335.665 175.613 335.631 177.341 336.118" stroke="#003188" stroke-width="0.839014" stroke-miterlimit="10" stroke-linecap="round" stroke-linejoin="round"/>
    <path d="M123.795 338.417C125.792 336.907 128.729 336.755 130.843 338.081C131.178 338.283 131.514 338.534 131.9 338.501C132.286 338.484 132.588 338.199 132.907 337.98C133.612 337.494 134.501 337.242 135.374 337.309C136.397 337.376 137.37 337.863 138.411 337.964C140.038 338.098 141.666 337.259 143.26 337.561" stroke="#003188" stroke-width="0.839014" stroke-miterlimit="10" stroke-linecap="round" stroke-linejoin="round"/>
    <path d="M146.7 340.699C147.372 340.699 148.026 340.699 148.697 340.699" stroke="#003188" stroke-width="0.839014" stroke-miterlimit="10" stroke-linecap="round" stroke-linejoin="round"/>
    <path d="M139.804 345.951C140.139 345.766 140.525 345.716 140.894 345.783" stroke="#003188" stroke-width="0.839014" stroke-miterlimit="10" stroke-linecap="round" stroke-linejoin="round"/>
    <path d="M109.196 340.883C110.203 340.397 111.344 340.195 112.452 340.313" stroke="#003188" stroke-width="0.839014" stroke-miterlimit="10" stroke-linecap="round" stroke-linejoin="round"/>
    <path d="M291.498 335.967C292.035 336.034 292.588 336.101 293.125 336.168" stroke="#003188" stroke-width="0.839014" stroke-miterlimit="10" stroke-linecap="round" stroke-linejoin="round"/>
    <path d="M214.694 92.2332C213.469 93.0722 212.295 93.777 210.818 94.0454C209.408 94.2971 207.948 94.2468 206.522 94.1965C206.371 94.1965 206.287 94.2971 206.287 94.4314C206.086 94.3643 205.868 94.2971 205.666 94.2132C205.364 94.1126 205.23 94.5824 205.532 94.6999C207.462 95.3879 209.777 96.0423 211.841 95.8242C213.805 95.6228 214.241 94.1126 215.063 92.5856C215.147 92.3674 214.912 92.0821 214.694 92.2332Z" fill="#003188"/>
    <path d="M197.881 85.1016C197.579 83.4068 196.84 81.7791 195.75 80.4366" stroke="#003188" stroke-width="0.839014" stroke-miterlimit="10" stroke-linecap="round" stroke-linejoin="round"/>
    <path d="M192.981 81.2085C195.145 80.94 196.941 79.2452 197.813 77.2484C198.669 75.2515 198.72 72.9862 198.451 70.8215" stroke="#003188" stroke-width="0.839014" stroke-miterlimit="10" stroke-linecap="round" stroke-linejoin="round"/>
    <path d="M199.793 73.4393C200.733 72.7177 201.337 71.5431 201.354 70.3517" stroke="#003188" stroke-width="0.839014" stroke-miterlimit="10" stroke-linecap="round" stroke-linejoin="round"/>
    <path d="M201.975 73.4225C203.099 73.4057 204.123 72.8016 204.979 72.0969C206.573 70.7544 207.747 68.9086 208.284 66.895C208.536 65.9217 208.653 64.8813 208.318 63.9249" stroke="#003188" stroke-width="0.839014" stroke-miterlimit="10" stroke-linecap="round" stroke-linejoin="round"/>
    <path d="M205.045 62.1629C206.035 63.4214 206.572 65.0323 206.522 66.6265" stroke="#003188" stroke-width="0.839014" stroke-miterlimit="10" stroke-linecap="round" stroke-linejoin="round"/>
    <path d="M209.408 69.7308C211.623 67.9689 213.251 65.0827 212.563 62.3307C212.026 60.1493 210.063 58.4712 207.881 57.951C205.7 57.4309 203.334 57.9846 201.404 59.1257C199.793 60.0821 198.333 61.7769 198.619 63.6228C198.686 64.0591 198.887 64.5289 199.307 64.7303C200.129 65.1162 201.018 63.9416 200.683 63.0858C200.364 62.23 199.391 61.8105 198.485 61.6595C196.135 61.2568 193.685 62.0119 191.789 63.455C189.893 64.8981 188.551 66.9621 187.712 69.1938C187.208 70.5027 186.873 71.929 187.124 73.305C187.376 74.681 188.316 76.0066 189.675 76.3758C189.826 76.4094 189.977 76.4429 190.128 76.3926C190.564 76.2248 190.38 75.5368 190.044 75.218C189.121 74.3622 187.628 74.3454 186.537 74.9495C185.446 75.5536 184.725 76.6946 184.339 77.886C183.567 80.3192 184.087 83.0879 185.58 85.1687C187.074 87.2494 189.44 88.6254 191.957 89.0449" stroke="#EBF2FF" stroke-width="0.839014" stroke-miterlimit="10" stroke-linecap="round" stroke-linejoin="round"/>
    <path d="M186.889 79.8325C186.487 80.5205 186.52 81.3931 186.789 82.1482C187.057 82.9033 187.561 83.541 188.047 84.1786" stroke="#003188" stroke-width="0.839014" stroke-miterlimit="10" stroke-linecap="round" stroke-linejoin="round"/>
    <path d="M189.541 71.3082C189.39 70.0497 189.893 68.724 190.849 67.9018" stroke="#003188" stroke-width="0.839014" stroke-miterlimit="10" stroke-linecap="round" stroke-linejoin="round"/>
    <path d="M256.057 120.942C257.324 122.53 258.887 123.91 260.249 125.392C263.139 128.537 265.905 131.809 268.505 135.184C268.923 135.741 269.786 136.049 270.34 135.414C275.448 129.61 281.381 124.593 287.97 120.534C289.062 119.863 288.355 117.947 287.065 118.399C282.704 119.927 278.742 122.142 275.053 124.887C273.831 125.789 272.047 127.213 270.474 126.327C269.403 125.724 268.483 124.724 267.554 123.933C266.578 123.097 265.601 122.262 264.625 121.426C262.358 119.489 260.091 117.552 257.838 115.622C257.209 115.09 256.424 115.344 256.043 115.862C255.956 115.92 255.883 115.986 255.803 116.066C254.482 117.555 254.909 119.492 256.057 120.942Z" fill="#FFE2DB"/>
    <path d="M278.782 100.662C274.165 103.438 269.657 106.4 265.28 109.543C261.654 112.145 258.075 114.916 255.324 118.439C255.078 118.748 254.83 119.126 254.958 119.501C255.031 119.721 255.219 119.862 255.386 120.01C261.201 124.749 266.06 130.646 269.616 137.239C272.123 133.739 275.087 130.568 278.394 127.804C283.284 123.718 288.924 120.553 293.564 116.183C294.061 115.712 294.561 115.173 294.588 114.491C294.615 113.81 294.142 113.222 293.649 112.766C291.598 110.825 288.845 109.846 286.452 108.356C284.349 107.047 282.497 105.325 281.034 103.323" stroke="#FF3B0D" stroke-width="0.933735" stroke-linecap="round" stroke-linejoin="round"/>
    <path d="M279.016 101.865C278.502 105.505 277.739 109.111 276.742 112.658C276.58 113.263 276.389 113.888 275.969 114.348C275.394 114.989 274.506 115.203 273.667 115.391C268.102 116.615 262.509 117.699 256.888 118.642" stroke="#FF3B0D" stroke-width="0.933735" stroke-linecap="round" stroke-linejoin="round"/>
    <path d="M269.358 118.984C270.075 123.674 270.279 128.45 269.956 133.179" stroke="#FF3B0D" stroke-width="0.933735" stroke-linecap="round" stroke-linejoin="round"/>
    <path d="M279.248 111.729C283.574 112.451 287.875 113.408 292.096 114.571" stroke="#FF3B0D" stroke-width="0.933735" stroke-linecap="round" stroke-linejoin="round"/>
    <path d="M129.442 38.5841C128.627 40.4452 128.135 42.4709 127.459 44.3669C126.024 48.3902 124.418 52.3621 122.644 56.2358C122.347 56.8658 122.477 57.7724 123.297 57.9665C130.812 59.7797 138.017 62.6895 144.679 66.6273C145.782 67.2807 147.148 65.762 146.146 64.8311C142.762 61.6853 138.955 59.2128 134.807 57.2289C133.439 56.568 131.348 55.6534 131.398 53.8489C131.432 52.62 131.888 51.3405 132.155 50.1492C132.439 48.8961 132.723 47.643 133.007 46.3899C133.664 43.4814 134.321 40.5729 134.978 37.6799C135.156 36.8753 134.565 36.2984 133.93 36.2028C133.838 36.1535 133.745 36.1198 133.637 36.0857C131.704 35.6114 130.19 36.8925 129.442 38.5841Z" fill="#FFE2DB"/>
    <path d="M157.977 49.2347C153.369 46.444 148.647 43.8369 143.825 41.4295C139.833 39.4344 135.713 37.5603 131.314 36.7681C130.927 36.6951 130.476 36.6514 130.204 36.9396C130.043 37.1063 130.006 37.3388 129.953 37.5553C128.471 44.9089 125.519 51.9569 121.345 58.1767C125.61 58.7627 129.797 59.907 133.783 61.5439C139.678 63.9657 145.107 67.4799 151.137 69.5474C151.784 69.7678 152.495 69.9589 153.11 69.6647C153.726 69.3705 154.025 68.6783 154.199 68.0292C154.96 65.3104 154.542 62.4187 154.745 59.6065C154.923 57.1361 155.583 54.6947 156.673 52.4676" stroke="#FF3B0D" stroke-width="0.933735" stroke-linecap="round" stroke-linejoin="round"/>
    <path d="M157.022 50.002C153.562 51.2444 150.016 52.2508 146.413 53.0222C145.802 53.1608 145.161 53.283 144.558 53.1261C143.723 52.916 143.119 52.2297 142.562 51.5759C138.884 47.2232 135.319 42.7802 131.864 38.2469" stroke="#FF3B0D" stroke-width="0.933735" stroke-linecap="round" stroke-linejoin="round"/>
    <path d="M137.375 49.4385C133.559 52.259 129.429 54.6658 125.094 56.5844" stroke="#FF3B0D" stroke-width="0.933735" stroke-linecap="round" stroke-linejoin="round"/>
    <path d="M148.403 54.8058C149.781 58.9698 150.939 63.2212 151.879 67.4975" stroke="#FF3B0D" stroke-width="0.933735" stroke-linecap="round" stroke-linejoin="round"/>
    <path d="M262.91 250.265C263.066 251.177 263.652 252.01 264.067 252.812C264.515 253.67 264.973 254.508 265.451 255.357C267.336 258.776 269.347 262.125 271.438 265.419C271.765 265.922 272.535 266.166 273.04 265.79C275.558 263.927 278.308 262.58 281.299 261.665C283.962 260.847 286.766 260.068 288.717 257.935C289.536 257.028 288.638 255.8 287.533 256.012C285.064 256.498 282.61 256.979 280.14 257.464C278.39 257.802 276.473 258.286 274.707 257.801C272.712 257.254 271.891 254.966 270.913 253.356C269.642 251.248 268.29 249.197 266.853 247.187C266.328 246.45 265.371 246.619 264.91 247.144C263.75 247.778 262.645 248.818 262.91 250.265Z" fill="#FFE2DB"/>
    <path d="M284.729 234.854C279.506 238.213 274.283 241.571 269.064 244.945C267.129 246.197 265.18 247.454 263.453 248.97C263.107 249.283 262.755 249.63 262.676 250.075C262.596 250.52 262.812 250.976 263.025 251.368C265.81 256.792 268.987 262.005 272.527 266.963C279.026 261.881 287.574 260.219 294.58 255.864C294.812 255.714 295.054 255.545 295.111 255.301C295.163 255.091 295.067 254.876 294.995 254.687C292.553 248.885 289.806 243.205 286.753 237.697" stroke="#FF3B0D" stroke-width="0.933735" stroke-linecap="round" stroke-linejoin="round"/>
    <path d="M284.441 237.616C284.476 241.419 284.088 245.217 283.28 248.911C283.058 249.918 282.78 250.957 282.032 251.665C280.586 253.033 278.263 252.42 276.351 251.881C272.968 250.916 269.464 250.425 265.943 250.425" stroke="#FF3B0D" stroke-width="0.933735" stroke-linecap="round" stroke-linejoin="round"/>
    <path d="M284.996 248.843C287.253 249.783 289.382 251.005 291.335 252.457" stroke="#FF3B0D" stroke-width="0.933735" stroke-linecap="round" stroke-linejoin="round"/>
    <path d="M273.333 253.859C274.339 256.774 274.668 259.922 274.271 262.976" stroke="#FF3B0D" stroke-width="0.933735" stroke-linecap="round" stroke-linejoin="round"/>
    <path d="M133.248 253.724C133.034 253.134 132.516 252.91 131.918 252.971C129.353 253.22 127.055 251.704 125.968 249.446C124.653 246.71 124.997 243.561 125.407 240.64C125.615 239.17 123.359 239.032 123.087 240.448C122.836 240.366 122.551 240.39 122.26 240.539C120.771 241.285 119.228 242.163 118.351 243.626C117.619 244.859 117.41 246.294 117.417 247.707C117.424 249.12 117.612 250.51 117.494 251.917C117.35 253.513 116.871 255.069 116.098 256.462C115.503 257.519 116.536 258.546 117.618 258.131C122.451 256.267 127.86 257.097 132.706 255.156C133.219 254.928 133.434 254.223 133.248 253.724Z" fill="#FFE2DB"/>
    <path d="M141.028 233.894C134.058 236.365 127.188 239.133 120.474 242.206C119.878 242.477 119.248 242.782 118.863 243.329C118.568 243.743 118.455 244.238 118.355 244.726C117.31 249.476 116.557 254.286 116.062 259.121C122.75 257.67 129.43 256.135 136.089 254.559C136.631 254.421 137.193 254.29 137.607 253.903C138.055 253.481 138.209 252.86 138.335 252.254C139.465 246.814 138.857 241.022 140.88 235.859" stroke="#FF3B0D" stroke-width="0.933735" stroke-linecap="round" stroke-linejoin="round"/>
    <path d="M136.853 237.485C133.764 241.866 129.342 245.111 125.016 248.272C128.757 249.293 132.404 250.677 135.873 252.396" stroke="#FF3B0D" stroke-width="0.933735" stroke-linecap="round" stroke-linejoin="round"/>
    <path d="M125.961 244.553C124.092 244.252 122.21 243.957 120.349 243.669" stroke="#FF3B0D" stroke-width="0.933735" stroke-linecap="round" stroke-linejoin="round"/>
    <path d="M126.655 252.084C124.405 253.29 122.226 254.634 120.145 256.102" stroke="#FF3B0D" stroke-width="0.933735" stroke-linecap="round" stroke-linejoin="round"/>
</svg>
