<svg width="254" height="316" viewBox="0 0 254 316" fill="none"
    xmlns="http://www.w3.org/2000/svg">
    <g clip-path="url(#clip0)">
        <path d="M50.4776 22.6119C51.3792 22.9291 52.2139 23.3632 53.0153 23.8974C53.633 24.3148 54.7349 23.9308 54.8518 23.1461C55.1523 21.1594 55.4528 19.1893 55.7366 17.2026C60.6451 16.7518 65.7538 16.0339 70.0111 13.4294C71.7642 12.3609 75.337 9.97351 74.1349 7.45251C73.5005 6.11689 72.0647 6.01672 70.7624 6.18367C69.7607 6.31723 68.8091 6.56766 67.8741 6.90157C66.9726 4.73118 64.3681 3.54581 61.9807 4.04667C59.0757 4.66439 57.306 7.11861 56.1707 9.67299C53.5162 9.35578 50.7948 9.95681 49.142 12.2608C47.0885 15.1157 47.773 18.7886 48.4909 21.9775C48.758 23.0126 49.8265 23.096 50.4776 22.6119Z" fill="#EBF2FF"/>
        <path d="M55.5198 26.9526C54.3511 27.6372 54.6016 29.29 55.5866 29.8242C56.3379 30.6256 57.3563 31.26 58.4749 31.2767C59.3263 31.2934 60.0609 30.6423 60.111 29.7909C60.1444 29.073 59.7604 28.4552 59.2596 27.9711C58.358 27.1029 56.7553 26.2347 55.5198 26.9526ZM57.6401 29.891C57.7069 29.9578 57.6735 29.9411 57.6401 29.891V29.891Z" fill="#EBF2FF"/>
        <path d="M71.4469 25.2331C71.0963 25.0828 70.6622 25.0828 70.3283 25.2998C69.1764 26.0344 68.5085 27.1864 68.3917 28.5554C68.3583 29.0396 68.7423 29.5238 69.1597 29.7074C69.6605 29.9077 70.128 29.7909 70.5287 29.4403C71.3801 28.7224 71.9645 27.8208 72.3819 26.8024C72.6323 26.168 72.098 25.4334 71.5137 25.2664C71.4803 25.2331 71.4636 25.2331 71.4469 25.2331Z" fill="#EBF2FF"/>
        <path d="M64.1679 34.9498C64.1178 34.9832 64.0844 35.0165 64.0343 35.0666C63.8173 35.2336 63.6169 35.4506 63.45 35.6844C63.1495 36.1184 63.4834 36.636 63.9008 36.7862C65.0194 37.2036 66.2047 36.9198 67.123 36.2019C67.4235 35.9682 67.4068 35.3838 67.123 35.1334C66.2882 34.4322 65.0861 34.2819 64.1679 34.9498Z" fill="#EBF2FF"/>
        <path d="M17.1038 61.4452C23.7652 62.3134 30.7272 59.542 35.1013 54.4833C36.1531 53.2645 37.1549 51.8955 37.806 50.4263C38.5573 48.7067 37.3385 47.6048 35.7191 47.3377C35.285 47.2709 34.8342 47.2208 34.4001 47.1874C36.6707 47.0706 38.9246 47.9387 41.0449 48.7568C44.0834 49.9422 47.122 51.1275 50.1772 52.3129C53.1657 53.4816 56.1541 54.6502 59.1426 55.8189C61.8139 56.8707 64.7189 58.1396 67.6071 57.1545C67.8075 57.0878 67.9744 56.9542 68.0579 56.7705C70.8127 57.2714 73.1834 55.1511 74.8195 53.0976C75.7378 51.9289 76.656 50.6767 76.9398 49.1909C77.2237 47.7217 76.9064 46.2358 76.2553 44.9002C75.5541 43.4644 74.4355 42.279 73.2669 41.2105C72.4154 40.4258 71.0464 38.8231 69.7275 39.6411C69.2767 39.925 68.9595 40.4759 69.0596 41.0101C69.1765 41.7114 69.7775 41.895 70.3619 42.1287C71.614 42.6463 72.2818 44.0487 72.3152 45.3509C72.382 49.0239 68.659 51.6451 66.8559 54.4833C66.8559 54.5 66.8392 54.5 66.8392 54.5167C64.2848 51.979 60.328 51.3279 56.9054 50.4764C54.2175 49.8086 51.4962 49.0239 48.9251 47.9721C46.8548 47.1206 44.6678 45.7182 44.6511 43.2139C44.6344 40.2088 47.1888 38.1886 49.7932 37.2871C50.1271 37.1702 50.2774 36.9031 50.3108 36.6193C51.229 36.636 51.1956 35.1835 50.2607 35.1167C48.1404 34.9664 46.0201 35.3671 44.1001 36.2854C43.1318 36.7528 42.297 37.3706 41.4289 37.9883C40.4772 38.6561 39.5924 39.0234 38.4404 39.1904C36.5371 39.4742 35.0346 40.2589 33.8325 41.7781C32.7139 43.1972 32.0294 44.9002 31.5285 46.6198C31.4618 46.8702 31.5452 47.1373 31.6955 47.321C29.3247 47.705 27.0542 48.7067 25.1175 50.1091C21.6282 52.6134 19.174 56.2196 17.1372 59.9427C17.1205 59.9427 17.1038 59.9427 17.0871 59.9427C16.1521 59.8258 16.1521 61.3284 17.1038 61.4452Z" fill="#EBF2FF"/>
        <path d="M9.72441 113.985C10.6593 114.52 11.5943 115.021 12.5459 115.538C13.364 115.989 14.2989 116.723 15.284 116.456C17.0704 115.956 17.2206 113.368 17.3876 111.899C17.8717 107.491 16.8867 102.9 14.6328 99.0598C12.379 95.2366 8.90634 92.1647 4.83267 90.395C4.44868 90.228 4.08138 90.395 3.86435 90.6454C3.76417 90.7289 3.6807 90.8624 3.63061 91.0294C3.06297 93.4669 2.62889 95.9378 2.37846 98.4254C2.14473 100.613 2.01116 102.85 2.36177 105.037C2.69567 107.074 3.54713 108.943 4.94954 110.463C6.30186 111.932 8.00479 113.017 9.72441 113.985Z" fill="#EBF2FF"/>
        <path d="M82.0151 69.6426C82.8165 70.1936 83.4843 70.8614 84.0519 71.596C83.9184 76.8049 83.7848 82.0139 83.6512 87.2228C83.5177 92.3483 83.4175 97.4737 83.6346 102.583C83.7681 105.621 84.0185 108.66 84.4526 111.665C84.3525 111.648 84.2523 111.648 84.1521 111.665C72.9829 113.551 61.4298 112.984 50.4943 110.029C47.4224 109.194 44.4172 108.175 41.4621 106.99C40.6274 106.656 40.2434 107.858 40.8778 108.342C41.0615 114.169 41.5623 119.979 42.3804 125.739C42.5807 127.191 42.8145 128.644 43.0649 130.096C43.2485 131.215 43.5157 132.317 44.4339 133.052C45.3522 133.786 46.5876 133.953 47.7229 134.153C49.1587 134.404 50.5945 134.638 52.0303 134.855C57.7568 135.673 63.5334 136.107 69.31 136.107C72.2149 136.107 75.1366 136.007 78.0416 135.806C79.1268 135.723 80.2788 135.706 80.98 134.754C81.6812 133.819 81.8982 132.434 82.2155 131.332C83.7347 125.973 84.653 120.447 84.9869 114.887C85.1538 115.789 85.3542 116.69 85.5712 117.592C86.0721 119.645 86.5228 122.016 87.7082 123.802C88.8769 125.555 90.7802 126.29 92.8504 125.989C95.0041 125.672 96.9741 124.537 98.8273 123.435C100.497 122.45 102.166 121.315 103.368 119.762C104.504 118.31 105.121 116.607 104.854 114.77C104.621 113.234 103.836 111.715 102.55 110.813C100.981 109.711 99.228 110.045 97.6586 110.947C96.7237 111.481 95.8555 112.132 94.7369 112.182C93.7185 112.232 92.7001 111.865 91.8654 111.297C89.9454 109.995 89.1106 107.641 88.6265 105.454C88.0922 103.05 87.9419 100.562 87.9419 98.1082C87.9419 92.4818 88.8101 86.8555 88.4261 81.2292C88.1924 77.8066 87.5079 74.0502 85.5712 71.1619C85.5712 71.0784 85.5712 70.9783 85.5712 70.8948C85.5879 70.4106 85.2039 70.1602 84.8199 70.1769C84.2356 69.4924 83.5511 68.8579 82.7664 68.3404C81.965 67.8061 81.2137 69.1084 82.0151 69.6426Z" fill="#EBF2FF"/>
        <path d="M100.347 79.9103C101.899 81.1291 103.619 82.0473 105.305 83.0824C107.108 84.1843 108.611 85.4531 110.047 87.0058C110.614 87.6235 111.199 88.4917 112 88.8089C112.918 89.1762 113.619 88.5752 113.987 87.7738C114.922 85.7704 115.523 83.5332 115.94 81.3795C116.124 80.4279 116.391 79.3594 116.257 78.391C116.107 77.3893 115.423 76.6213 114.655 76.0203C112.935 74.6513 110.731 74.1671 108.861 73.0485C106.908 71.8798 105.322 70.2437 104.17 68.2737C104.103 68.1568 104.003 68.0566 103.903 68.0065C103.936 67.923 103.97 67.8229 103.97 67.706C103.97 66.9881 103.352 66.4706 102.634 66.5874C101.716 66.7377 101.449 67.8229 101.165 68.5575C100.297 70.778 99.4117 72.9817 98.5769 75.2022C98.2597 76.037 98.0594 76.9218 98.41 77.79C98.7439 78.6748 99.6121 79.3427 100.347 79.9103Z" fill="#EBF2FF"/>
        <path d="M78.6594 145.59C70.7959 142.434 62.1978 142.768 53.9002 143.252C49.5928 143.503 45.2687 143.803 40.9446 143.703C36.4202 143.586 31.9125 143.019 27.5049 142.017C25.9355 141.666 22.9638 140.464 22.3126 142.802C22.0455 143.753 22.4128 144.805 22.6299 145.74C22.8302 146.575 23.0305 147.41 23.2309 148.261C22.5631 148.311 22.1457 149.279 22.8803 149.647C29.2913 152.836 36.3701 149.997 42.9815 149.129C50.6613 148.111 58.2744 150.498 65.9542 149.847C70.295 149.48 74.5023 148.261 78.6594 147.042C79.4107 146.808 79.3105 145.857 78.6594 145.59Z" fill="#EBF2FF"/>
        <path d="M26.7871 233.357C26.9541 233.541 27.2713 233.641 27.5217 233.557C30.2264 232.506 32.931 231.32 35.1682 229.417C37.3052 227.614 38.8245 225.126 39.5257 222.422C40.9948 216.745 38.4739 211.236 34.5004 207.212C31.9627 204.641 28.9241 202.604 25.919 200.601C25.1176 200.067 24.3663 201.369 25.1677 201.903C25.1677 201.903 25.1677 201.903 25.1844 201.903C24.9673 202.003 24.8004 202.22 24.8171 202.554C25.2678 208.097 25.5183 213.64 25.5851 219.199C25.6184 221.954 25.5851 224.709 25.5183 227.447C25.4849 229.484 25.2345 231.788 26.7871 233.357Z" fill="#EBF2FF"/>
        <path d="M100.881 232.539C101.398 232.84 101.983 232.456 102.016 231.888C102.701 219.851 101.899 207.746 99.6454 195.909C99.612 195.742 99.5452 195.626 99.4618 195.542C99.5118 195.475 99.5619 195.409 99.6287 195.359C100.246 194.624 99.1946 193.555 98.5602 194.29C94.6535 198.865 91.7652 204.424 90.9471 210.434C90.1959 215.944 91.3311 221.67 94.4031 226.345C96.0559 228.866 98.2597 231.003 100.881 232.539Z" fill="#EBF2FF"/>
        <path d="M50.144 233.073C50.0105 233.123 49.8936 233.173 49.7934 233.24C49.5263 233.257 49.2759 233.424 49.1924 233.774C48.5747 236.396 47.9569 239.033 46.9719 241.538C45.9869 244.042 44.4676 246.212 43.1153 248.516C41.7797 250.77 40.8447 253.208 40.4607 255.812C40.1268 258.049 39.9933 260.671 40.8447 262.808C41.6461 264.828 43.6161 265.896 45.7198 265.112C47.9569 264.277 48.9586 262.073 49.5931 259.936C51.1791 254.594 52.3645 249.067 52.6984 243.491C52.7986 241.922 52.832 240.336 52.7652 238.766C52.7151 237.397 52.7485 235.811 52.3311 234.492C52.0473 233.557 51.2125 232.689 50.144 233.073Z" fill="#EBF2FF"/>
        <path d="M86.1722 244.409C84.9701 243.875 83.4676 244.376 82.4658 245.244C81.03 246.496 80.3455 248.433 80.0951 250.269C79.5275 254.61 80.8297 259.335 82.6495 263.242C84.1855 266.547 86.9903 270.838 91.2977 269.703C93.3512 269.169 94.2861 267.315 94.7035 265.379C95.1877 263.158 95.1042 260.854 94.6534 258.617C93.5682 253.341 90.3293 248.884 87.2073 244.626C86.9235 244.276 86.4894 244.242 86.1722 244.409Z" fill="#EBF2FF"/>
        <path d="M62.3647 157.594C63.6001 156.859 65.1194 156.175 66.0877 155.073C66.7722 154.288 67.3232 153.069 66.5218 152.168C65.5869 151.116 63.9674 151.717 62.8321 152.017C61.413 152.401 60.044 152.886 58.6917 153.453C55.8869 154.655 53.2657 156.241 50.9284 158.195C49.91 159.029 48.591 160.265 49.0919 161.734C49.4926 162.936 51.0119 163.504 51.9802 162.619C52.0637 162.552 52.1137 162.469 52.1471 162.402C52.3475 162.702 52.7315 162.903 53.1489 162.686C56.2876 161.083 59.3595 159.397 62.3647 157.594Z" fill="#EBF2FF"/>
        <path d="M53.8167 282.324C53.8167 281.924 53.4827 281.556 53.0654 281.573C45.5191 281.79 37.9895 282.007 30.4432 282.224C30.3931 282.224 30.343 282.241 30.3096 282.241C30.2595 281.74 29.742 281.289 29.2244 281.673C24.5998 284.996 18.7064 285.196 13.6143 287.433C9.37368 289.303 5.11637 293.009 5.28332 298.035C5.30002 298.452 5.61723 298.769 6.03461 298.786C14.7329 299.153 23.4478 299.437 32.1461 299.621C36.4702 299.721 40.7943 299.788 45.1184 299.838C47.2888 299.871 49.4425 299.888 51.6129 299.905C52.3308 299.905 53.0821 299.905 53.6163 299.337C54.234 298.652 54.0838 297.584 54.0671 296.749C53.9836 291.924 53.9001 287.133 53.8167 282.324Z" fill="#EBF2FF"/>
        <path d="M123.82 285.38C120.799 284.211 117.526 283.643 114.388 282.892C110.865 282.057 107.442 281.022 103.786 281.156C99.6455 281.306 95.5051 281.473 91.3646 281.707C87.4579 281.924 83.5178 282.375 79.8782 283.894C79.1437 284.211 79.2939 285.279 79.8949 285.396C80.2789 290.004 80.93 294.595 81.8316 299.153C81.9151 299.554 82.3825 299.771 82.7498 299.671C97.1579 296.015 112.15 297.267 126.775 295.247C127.994 295.08 129.33 294.762 129.964 293.577C130.565 292.442 130.131 290.956 129.597 289.871C128.495 287.583 126.108 286.248 123.82 285.38Z" fill="#EBF2FF"/>
        <path d="M203.24 293.878C202.138 294.295 201.036 294.712 199.901 295.096H194.659C197.23 292.091 199.784 289.069 202.288 286.014C203.24 287.033 205.127 285.83 204.292 284.562C204.175 284.378 204.041 284.194 203.924 284.011C204.626 283.143 205.344 282.258 206.045 281.39C206.462 280.855 206.562 280.137 206.045 279.62C205.611 279.186 204.692 279.086 204.275 279.62C203.674 280.371 203.073 281.106 202.489 281.857C199.968 278.167 197.246 274.611 194.442 271.139C197.046 268.2 199.667 265.279 202.288 262.374C202.606 262.023 202.923 261.672 203.24 261.322C204.392 262.54 205.594 263.743 206.829 264.878C208.015 265.963 209.785 264.21 208.599 263.108C207.33 261.939 206.112 260.704 204.926 259.452C206.88 257.315 208.85 255.161 210.836 253.041C211.938 251.855 210.169 250.086 209.067 251.271C207.113 253.375 205.177 255.478 203.24 257.599C200.252 254.226 197.513 250.637 194.842 246.98C197.68 243.608 200.519 240.252 203.39 236.93C207.13 232.589 210.886 228.265 214.676 223.974C215.745 222.772 213.975 220.986 212.907 222.205C212.823 222.305 212.74 222.388 212.656 222.488C212.606 222.505 212.556 222.505 212.506 222.522C211.037 222.956 209.568 223.373 208.082 223.741L160.316 223.874C159.298 223.624 158.279 223.357 157.278 223.073C156.927 222.689 156.46 222.605 156.042 222.722C155.992 222.705 155.959 222.705 155.909 222.689C154.356 222.238 153.705 224.642 155.241 225.11C155.408 225.16 155.558 225.21 155.725 225.243C158.146 228.933 160.633 232.589 163.205 236.179C161.301 238.416 159.398 240.636 157.495 242.873C156.46 244.092 158.213 245.879 159.264 244.643C161.084 242.523 162.887 240.386 164.707 238.265C166.844 241.221 169.031 244.142 171.268 247.014C169.666 248.984 168.063 250.971 166.477 252.957C165.408 254.31 164.34 255.645 163.288 256.998C162.704 256.263 162.103 255.545 161.518 254.811C161.084 254.276 160.199 254.376 159.749 254.811C159.231 255.328 159.331 256.063 159.749 256.58C160.4 257.398 161.068 258.2 161.719 259.018C161.251 259.619 160.767 260.237 160.3 260.838C159.882 261.372 159.782 262.09 160.3 262.607C160.734 263.041 161.652 263.142 162.069 262.607C162.487 262.073 162.904 261.522 163.321 260.988C166.11 264.427 168.898 267.866 171.686 271.306C168.714 275.029 165.776 278.768 162.837 282.542C162.42 283.076 162.32 283.794 162.837 284.311C163.271 284.745 164.19 284.845 164.607 284.311C167.479 280.622 170.367 276.949 173.289 273.292C175.843 276.448 178.414 279.603 180.968 282.759C180.417 283.41 179.867 284.044 179.316 284.695C176.578 287.901 173.873 291.14 171.168 294.378C170.968 294.612 170.884 294.879 170.868 295.13H169.181C168.564 294.796 167.946 294.445 167.328 294.045C165.959 293.176 164.707 295.347 166.059 296.215C174.741 301.758 185.576 301.674 195.243 299.137C198.181 298.369 201.07 297.384 203.908 296.282C204.542 296.048 204.976 295.43 204.776 294.746C204.609 294.145 203.874 293.627 203.24 293.878ZM200.602 227.848C203.641 227.347 206.646 226.696 209.634 225.928C204.142 232.188 198.699 238.516 193.34 244.894C190.802 241.387 188.314 237.865 185.676 234.442C185.56 234.292 185.459 234.158 185.343 234.025C186.762 232.372 188.197 230.719 189.617 229.066C193.29 228.849 196.963 228.449 200.602 227.848ZM191.67 246.847C188.732 250.336 185.827 253.859 182.922 257.382C180.05 253.959 177.212 250.52 174.441 247.014C177.479 243.291 180.568 239.601 183.673 235.928C186.428 239.518 189.032 243.207 191.67 246.847ZM184.575 259.335C187.429 255.846 190.301 252.39 193.189 248.934C195.276 251.772 197.397 254.577 199.667 257.281C200.285 258.016 200.903 258.734 201.537 259.452C198.615 262.674 195.71 265.896 192.822 269.152C190.585 266.43 188.314 263.743 186.027 261.071C185.543 260.487 185.059 259.903 184.575 259.335ZM183.773 232.005C183.005 231.053 182.237 230.118 181.453 229.183C183.039 229.217 184.608 229.217 186.194 229.183C185.376 230.118 184.575 231.053 183.773 232.005ZM164.841 234.208C162.971 231.571 161.134 228.899 159.348 226.211C162.837 227.08 166.36 227.764 169.916 228.248C168.23 230.235 166.527 232.222 164.841 234.208ZM172.888 228.616C174.591 228.799 176.31 228.949 178.013 229.05C179.432 230.636 180.801 232.272 182.12 233.941C178.998 237.598 175.91 241.304 172.871 245.027C170.968 242.59 169.098 240.119 167.278 237.614C166.961 237.18 166.661 236.746 166.343 236.329C168.514 233.741 170.701 231.17 172.888 228.616ZM192.755 273.008C195.577 276.531 198.298 280.121 200.819 283.86C198.198 287.083 195.527 290.255 192.822 293.41C189.95 289.871 187.096 286.348 184.224 282.809C187.046 279.52 189.884 276.247 192.755 273.008ZM186.077 289.053C187.713 291.073 189.349 293.093 191.002 295.113L173.806 295.13C176.711 291.64 179.633 288.185 182.588 284.729C183.74 286.164 184.909 287.6 186.077 289.053ZM172.821 249.017C172.938 249.168 173.055 249.318 173.172 249.451C175.826 252.807 178.581 256.079 181.336 259.352C178.698 262.574 176.077 265.813 173.489 269.052C173.422 269.135 173.355 269.219 173.289 269.319C171.869 267.582 170.45 265.829 169.048 264.093C167.662 262.39 166.277 260.687 164.907 258.984C167.495 255.629 170.15 252.306 172.821 249.017ZM182.972 261.288C185.727 264.527 188.465 267.749 191.153 271.038C188.281 274.294 185.443 277.55 182.621 280.839C180.033 277.666 177.462 274.478 174.875 271.306C177.563 267.95 180.251 264.611 182.972 261.288Z" fill="#EBF2FF"/>
        <path d="M21.6613 308.169C19.324 307.017 16.6694 306.8 14.2152 307.668C12.7126 308.202 13.3638 310.623 14.883 310.089C16.7028 309.438 18.6562 309.471 20.3925 310.339C21.845 311.04 23.1138 308.887 21.6613 308.169Z" fill="#EBF2FF"/>
        <path d="M43.7662 308.152C41.4288 307.468 39.0247 307.401 36.654 307.885C35.0679 308.202 35.7357 310.623 37.3218 310.306C39.2584 309.922 41.2118 310.022 43.0984 310.573C44.651 311.007 45.3188 308.603 43.7662 308.152Z" fill="#EBF2FF"/>
        <path d="M63.2997 303.461C61.5467 303.361 59.8104 303.477 58.0574 303.761C57.3896 303.861 57.0223 304.696 57.1892 305.297C57.3896 306.015 58.0574 306.282 58.7252 306.165C60.2445 305.932 61.7638 305.882 63.2997 305.965C64.9025 306.049 64.9025 303.544 63.2997 303.461Z" fill="#EBF2FF"/>
        <path d="M86.3058 307.751C84.6196 307.301 82.8833 307.05 81.1303 307.05C79.3773 307.05 77.6576 307.501 75.9213 307.534C74.3019 307.568 72.7492 306.9 71.1298 306.733C69.4268 306.566 67.6905 306.8 66.0544 307.301C64.5184 307.785 65.1695 310.206 66.7222 309.721C68.2415 309.237 69.8442 309.054 71.4303 309.271C72.9495 309.471 74.3686 310.055 75.9213 310.039C77.5074 310.005 79.0767 309.605 80.6628 309.571C82.349 309.538 84.0186 309.755 85.638 310.189C87.1907 310.59 87.8585 308.169 86.3058 307.751Z" fill="#EBF2FF"/>
        <path d="M181.302 309.454C179.583 309.02 177.846 308.736 176.077 308.62C174.274 308.486 172.454 308.686 170.651 308.519C167.428 308.236 164.106 306.599 161.118 308.67C159.799 309.571 161.051 311.758 162.386 310.84C164.874 309.12 168.28 310.89 170.985 311.057C172.587 311.157 174.19 311.007 175.793 311.107C177.446 311.207 179.065 311.475 180.668 311.875C182.187 312.259 182.855 309.838 181.302 309.454Z" fill="#EBF2FF"/>
        <path d="M203.206 310.974C201.236 310.54 199.216 310.339 197.196 310.406C195.593 310.456 195.577 312.96 197.196 312.91C198.999 312.844 200.769 312.994 202.539 313.378C204.125 313.728 204.792 311.324 203.206 310.974Z" fill="#EBF2FF"/>
        <path d="M212.539 307.501C210.653 306.549 208.599 306.082 206.496 306.249C204.893 306.366 204.893 308.87 206.496 308.753C208.165 308.62 209.785 308.903 211.287 309.671C212.706 310.389 213.975 308.236 212.539 307.501Z" fill="#EBF2FF"/>
        <path d="M221.288 312.176C217.565 311.358 213.792 311.258 210.035 311.792C209.367 311.892 209 312.743 209.167 313.328C209.367 314.046 210.035 314.296 210.703 314.196C214.009 313.728 217.381 313.862 220.62 314.58C222.189 314.93 222.874 312.526 221.288 312.176Z" fill="#EBF2FF"/>
        <path d="M213.358 218.765C205.544 219.049 197.731 219.35 189.901 219.617C186.044 219.75 182.171 219.817 178.297 219.567C174.474 219.333 170.751 218.615 166.995 217.88C162.838 217.062 158.614 216.345 154.373 216.812C153.705 216.879 153.121 217.33 153.121 218.064C153.121 218.098 153.121 218.148 153.121 218.181C153.021 218.348 152.971 218.548 152.987 218.765C153.204 220.568 154.44 221.654 156.059 222.321C157.862 223.073 159.849 223.457 161.736 223.874C165.893 224.826 170.117 225.477 174.374 225.861C182.872 226.629 191.453 226.245 199.851 224.759C204.542 223.924 209.167 222.739 213.675 221.22C214.977 220.802 214.844 218.715 213.358 218.765Z" fill="#FFE2DB"/>
        <path d="M166.911 186.777C167.896 186.894 168.931 186.543 169.883 186.36C170.901 186.159 171.903 185.942 172.922 185.709C177.012 184.807 181.069 183.755 185.092 182.603C185.71 182.42 186.194 181.702 185.961 181.067C184.809 177.912 184.258 174.673 184.224 171.317C184.191 168.329 184.241 165.207 182.638 162.552C181.954 161.434 180.418 161.985 180.301 163.187C180.05 165.875 179.8 168.546 179.55 171.234C179.366 173.137 179.282 175.257 178.247 176.927C177.079 178.813 174.474 178.964 172.521 179.481C169.966 180.149 167.445 180.917 164.941 181.785C164.023 182.102 163.906 183.138 164.307 183.772C164.607 185.158 165.342 186.61 166.911 186.777Z" fill="#FFE2DB"/>
        <path d="M214.376 187.194C213.708 187.111 213.241 187.495 213.007 188.096C211.989 190.667 209.418 192.12 206.73 192.053C203.474 191.969 200.636 190.099 198.048 188.28C196.746 187.361 195.51 189.448 196.729 190.4C196.529 190.6 196.412 190.884 196.412 191.235C196.395 193.021 196.479 194.924 197.447 196.477C198.265 197.779 199.534 198.681 200.886 199.365C202.239 200.05 203.658 200.551 204.943 201.352C206.396 202.27 207.648 203.489 208.599 204.908C209.317 205.993 210.803 205.509 210.937 204.274C211.521 198.748 214.96 193.989 215.478 188.413C215.511 187.812 214.944 187.261 214.376 187.194Z" fill="#FFE2DB"/>
        <path d="M200.051 124.236C202.072 125.054 204.259 125.522 206.312 126.19C210.67 127.609 214.977 129.212 219.184 130.998C219.869 131.298 220.837 131.132 221.021 130.247C222.74 122.133 225.645 114.319 229.669 107.057C230.337 105.855 228.667 104.436 227.699 105.538C224.427 109.261 221.889 113.418 219.885 117.926C219.218 119.411 218.299 121.682 216.363 121.682C215.044 121.682 213.658 121.231 212.373 120.981C211.02 120.714 209.668 120.447 208.316 120.179C205.177 119.562 202.038 118.944 198.916 118.326C198.048 118.159 197.447 118.81 197.363 119.495C197.313 119.595 197.28 119.695 197.247 119.812C196.796 121.899 198.215 123.485 200.051 124.236Z" fill="#FFE2DB"/>
        <path d="M250.755 287.4C248.668 286.181 246.882 284.578 245.396 282.675C244.895 282.041 243.776 282.291 243.426 282.926C241.289 286.799 237.716 289.837 233.525 291.273C228.266 293.06 222.707 291.958 217.431 290.872C215.862 290.555 215.177 292.959 216.763 293.293C216.964 293.343 217.181 293.377 217.381 293.427C217.464 293.627 217.615 293.828 217.832 293.978C219.184 294.946 220.553 295.914 221.905 296.883C223.041 297.701 224.243 298.819 225.678 299.053C227.081 299.287 228.3 298.536 229.485 297.868C230.821 297.133 232.173 296.415 233.559 295.748C238.968 293.11 244.644 291.106 250.488 289.687C251.523 289.437 251.673 287.934 250.755 287.4Z" fill="#FFE2DB"/>
        <path d="M133.287 43.6981C129.63 41.1938 125.223 39.6244 120.982 38.4558C120.481 38.3222 119.813 38.5392 119.563 39.0234C117.359 43.3642 114.872 47.5714 111.666 51.2444C110.614 52.4464 112.367 54.2328 113.436 53.0141C113.603 52.8304 113.77 52.6301 113.92 52.4464C113.452 53.732 112.718 54.9007 111.683 55.8523C111.315 56.1862 110.915 56.4533 110.531 56.7538C110.013 57.1545 109.93 57.5385 109.913 58.1562C109.896 59.3917 109.98 60.6272 110.013 61.8626C110.047 62.9144 109.93 64.0998 110.214 65.1349C110.481 66.1533 111.299 66.7543 112.184 67.2218C114.204 68.2736 116.307 69.1585 118.461 69.8931C118.995 70.0767 119.58 69.7595 119.88 69.3254C121.249 67.2385 122.051 64.8845 123.169 62.6807C124.204 60.6272 125.49 58.7239 126.809 56.8373C129.447 53.0976 132.235 49.458 133.837 45.1172C134.055 44.5829 133.721 43.9986 133.287 43.6981Z" fill="#FFE2DB"/>
        <path d="M71.2134 15.3661C71.3803 18.4548 71.5473 21.5434 71.7309 24.6321C71.9646 28.8393 72.1316 33.3136 70.0447 36.9866C69.5271 37.8882 68.876 38.7229 68.0245 39.2906C66.0211 40.6262 63.3332 40.2422 61.096 39.3907C59.2595 38.6895 57.5399 37.6878 56.0039 36.4524" stroke="#003188" stroke-width="1.00172" stroke-linecap="round" stroke-linejoin="round"/>
        <path d="M57.8906 21.5601C59.1929 21.0259 60.612 20.8088 62.0144 20.9424" stroke="#003188" stroke-width="1.00172" stroke-linecap="round" stroke-linejoin="round"/>
        <path d="M60.662 25.2832C60.6954 24.8324 60.6787 24.3816 60.5952 23.9308" stroke="#003188" stroke-width="1.00172" stroke-linecap="round" stroke-linejoin="round"/>
        <path d="M69.8279 19.5567C68.6425 19.4064 67.4237 19.6903 66.4053 20.308C66.3051 20.3748 66.1883 20.4415 66.1215 20.5417C66.0213 20.692 65.9879 20.8756 65.9545 21.0426C65.7876 22.3949 65.9212 23.7973 66.3385 25.0829C66.589 25.8508 66.9563 26.6689 66.7225 27.4536C66.5055 28.2049 65.7876 28.7057 65.1365 29.1398" stroke="#003188" stroke-width="1.00172" stroke-linecap="round" stroke-linejoin="round"/>
        <path d="M68.2085 23.1796C68.2586 23.3465 68.3254 23.8808 68.292 24.3148" stroke="#003188" stroke-width="1.00172" stroke-linecap="round" stroke-linejoin="round"/>
        <path d="M64.0679 32.4788C64.8359 32.3286 65.6038 32.1616 66.3551 32.0114" stroke="#003188" stroke-width="1.00172" stroke-linecap="round" stroke-linejoin="round"/>
        <path d="M52.2809 23.0961C50.6781 22.2279 48.4577 23.2129 47.8232 24.9158C47.1888 26.6188 48.0737 28.689 49.643 29.6072C50.0103 29.8243 50.4277 30.0079 50.6781 30.3585C50.8952 30.6757 50.9286 31.0931 50.9453 31.4938C51.2458 37.1535 51.2625 42.8132 51.0121 48.473" stroke="#003188" stroke-width="1.00172" stroke-linecap="round" stroke-linejoin="round"/>
        <path d="M49.426 25.784C49.8935 26.1513 50.2942 26.6021 50.6114 27.0862" stroke="#003188" stroke-width="1.00172" stroke-linecap="round" stroke-linejoin="round"/>
        <path d="M53.2493 24.0477C53.2326 24.248 53.2159 24.4651 53.2827 24.6487C53.3495 24.8324 53.5498 24.9826 53.7502 24.9492C53.9004 24.9158 54.0006 24.7823 54.0841 24.6654C54.5515 23.9475 54.7185 23.0961 54.8187 22.2446C55.019 20.6418 55.019 19.0224 54.8187 17.4363" stroke="#003188" stroke-width="1.00172" stroke-linecap="round" stroke-linejoin="round"/>
        <path d="M56.271 17.2359C61.9641 17.7201 67.8075 16.1841 72.5156 12.9452C73.8011 12.0771 75.0199 11.042 75.7545 9.67295C76.4557 8.38741 76.6059 6.6511 75.6376 5.54921C74.8529 4.63096 73.5173 4.39723 72.3152 4.5141C69.9111 4.74783 67.6906 6.3005 66.6221 8.47089C66.4051 8.90497 66.3216 9.58948 66.7891 9.75643C67.2565 9.92339 67.6238 9.35574 67.7741 8.88827" stroke="#003188" stroke-width="1.00172" stroke-linecap="round" stroke-linejoin="round"/>
        <path d="M66.5055 4.83136C66.4721 3.14513 65.1198 1.65925 63.5003 1.24187C61.8809 0.824482 60.0945 1.32534 58.7589 2.34376C57.4232 3.36217 56.505 4.83136 55.8706 6.40072C55.2862 7.85322 54.9189 9.43927 55.1861 10.9919C55.2195 11.1756 55.2528 11.3759 55.3864 11.5095C55.6702 11.7933 56.1711 11.6431 56.4382 11.3759C56.9224 10.8918 57.0226 10.0904 56.8055 9.43927C56.5718 8.78816 56.0542 8.2706 55.4699 7.9033C53.9673 6.98506 51.9806 7.01845 50.3778 7.80313C48.7918 8.58781 47.573 10.0069 46.8217 11.6097C45.6363 14.0973 45.5028 17.0523 46.4377 19.6401" stroke="#003188" stroke-width="1.00172" stroke-linecap="round" stroke-linejoin="round"/>
        <path d="M46.7214 21.0092C46.7882 21.4098 46.8717 21.8105 46.9385 22.1945" stroke="#003188" stroke-width="1.00172" stroke-linecap="round" stroke-linejoin="round"/>
        <path d="M68.8763 38.6227C68.7928 42.3959 69.1935 46.1857 70.0617 49.8587" stroke="#003188" stroke-width="1.00172" stroke-linecap="round" stroke-linejoin="round"/>
        <path d="M56.4883 36.7695C57.5234 38.4224 58.475 40.1253 60.1112 41.1938C61.7473 42.2623 63.7508 42.8466 65.6707 42.5294C66.422 42.4126 67.1733 42.1287 67.7075 41.5945C68.2418 41.0602 68.5089 40.2088 68.2251 39.5076C66.5222 40.5427 64.3685 40.6262 62.4485 40.142C60.5119 39.6578 58.7588 38.6728 57.0392 37.6377" fill="#003188"/>
        <path d="M56.4883 36.7695C57.5234 38.4224 58.475 40.1253 60.1112 41.1938C61.7473 42.2623 63.7508 42.8466 65.6707 42.5294C66.422 42.4126 67.1733 42.1287 67.7075 41.5945C68.2418 41.0602 68.5089 40.2088 68.2251 39.5076C66.5222 40.5427 64.3685 40.6262 62.4485 40.142C60.5119 39.6578 58.7588 38.6728 57.0392 37.6377" stroke="#003188" stroke-width="1.00172" stroke-linecap="round" stroke-linejoin="round"/>
        <path d="M65.053 46.4695C64.8694 47.0371 64.7024 47.6048 64.5188 48.1724" stroke="#003188" stroke-width="1.00172" stroke-linecap="round" stroke-linejoin="round"/>
        <path d="M50.6951 34.5991C47.8235 34.499 44.9352 35.3337 42.5645 36.9365C40.1937 38.5559 38.3405 40.9267 37.3889 43.6313" stroke="#003188" stroke-width="1.00172" stroke-linecap="round" stroke-linejoin="round"/>
        <path d="M39.9599 38.99C38.6243 38.8564 37.3387 39.4742 36.2202 40.2255C33.8661 41.8115 31.9128 44.2323 31.5789 47.0372" stroke="#003188" stroke-width="1.00172" stroke-linecap="round" stroke-linejoin="round"/>
        <path d="M69.7441 39.1904C71.4304 39.2738 73.0164 40.142 74.1517 41.3775C75.287 42.6129 76.0216 44.1823 76.439 45.8184C76.8897 47.6048 76.9565 49.5749 76.1218 51.211C74.903 53.6318 72.0314 54.8172 70.6624 57.1545" stroke="#003188" stroke-width="1.00172" stroke-linecap="round" stroke-linejoin="round"/>
        <path d="M50.9285 38.7563C49.5428 39.2738 48.1738 40.0084 47.2388 41.1604C46.3039 42.3124 45.8531 43.9485 46.4208 45.3342C47.0552 46.8702 48.6913 47.6883 50.2607 48.2392C53.1824 49.2743 56.271 49.7752 59.2428 50.6768C62.2145 51.5616 65.1696 52.8972 67.2398 55.2012" stroke="#003188" stroke-width="1.00172" stroke-linecap="round" stroke-linejoin="round"/>
        <path d="M69.1934 42.3123C69.7611 42.0953 70.4289 42.3123 70.8797 42.7297C71.3137 43.1471 71.5642 43.7314 71.7311 44.3158C71.9983 45.2841 72.065 46.3526 71.7812 47.3209C71.0466 49.7418 68.2919 51.211 67.8745 53.6986" stroke="#003188" stroke-width="1.00172" stroke-linecap="round" stroke-linejoin="round"/>
        <path d="M51.1292 52.9473C54.6018 55.4349 59.3099 55.3848 63.0997 57.3715" stroke="#003188" stroke-width="1.00172" stroke-linecap="round" stroke-linejoin="round"/>
        <path d="M65.1364 58.7072C63.1163 62.1131 62.3483 66.2368 63.0161 70.1435C63.5169 73.132 64.8359 76.1705 63.951 79.0755C63.2498 81.3628 61.2464 83.266 61.3132 85.6535C61.4133 88.9258 65.4202 91.4968 64.6188 94.669" stroke="#003188" stroke-width="1.00172" stroke-linecap="round" stroke-linejoin="round"/>
        <path d="M64.8193 96.7559C64.8193 96.9896 64.8193 97.2233 64.8193 97.4404" stroke="#003188" stroke-width="1.00172" stroke-linecap="round" stroke-linejoin="round"/>
        <path d="M69.0931 59.3917C68.3084 62.5805 68.6256 66.0198 69.9779 69.0249C70.8294 70.9115 72.0815 72.6645 72.3486 74.718C72.9497 79.159 68.7758 83.3662 69.7776 87.7404" stroke="#003188" stroke-width="1.00172" stroke-linecap="round" stroke-linejoin="round"/>
        <path d="M70.3454 89.3097C70.1784 89.4933 70.1116 89.7605 70.1784 89.9942" stroke="#003188" stroke-width="1.00172" stroke-linecap="round" stroke-linejoin="round"/>
        <path d="M47.4227 51.2778C43.9501 49.5582 40.3272 48.0055 36.4873 47.4212C32.6474 46.8368 28.5236 47.3544 25.3181 49.5248C23.1143 51.0107 21.4615 53.1477 19.9589 55.3514C13.0804 65.402 8.72295 76.9385 4.49903 88.3748C3.04654 92.3149 1.57735 96.3385 1.34361 100.546C1.10988 104.753 2.27855 109.227 5.38388 112.065C8.52261 114.937 13.0637 115.688 16.6866 117.926C19.0574 119.378 20.994 121.448 23.2479 123.101C28.7407 127.125 35.7193 128.46 42.4976 129.078" stroke="#003188" stroke-width="1.00172" stroke-linecap="round" stroke-linejoin="round"/>
        <path d="M39.9767 106.172C37.6394 102.265 34.2502 99.0097 30.2433 96.856C29.1581 96.2717 27.4218 95.9878 27.0211 97.1565C26.6371 98.2751 28.3067 99.1766 29.3418 98.6257C30.3769 98.0748 30.8277 96.8393 31.1783 95.7207C33.6993 87.5567 36.2203 79.3259 36.9048 70.8113" stroke="#003188" stroke-width="1.00172" stroke-linecap="round" stroke-linejoin="round"/>
        <path d="M31.946 68.6409C31.9627 71.3122 32.497 74.0001 33.5154 76.471" stroke="#003188" stroke-width="1.00172" stroke-linecap="round" stroke-linejoin="round"/>
        <path d="M34.6841 103.618C35.9529 104.219 36.988 105.287 37.539 106.589" stroke="#003188" stroke-width="1.00172" stroke-linecap="round" stroke-linejoin="round"/>
        <path d="M7.85474 109.979C8.72289 111.181 10.1587 111.815 11.5945 112.166C13.0303 112.516 14.5162 112.65 15.9186 113.134C17.9053 113.819 19.6583 115.188 20.7769 116.974" stroke="#003188" stroke-width="1.00172" stroke-linecap="round" stroke-linejoin="round"/>
        <path d="M20.8772 114.002C21.3948 114.536 21.8121 115.154 22.146 115.822" stroke="#003188" stroke-width="1.00172" stroke-linecap="round" stroke-linejoin="round"/>
        <path d="M45.1687 37.8714C46.0035 37.0533 47.1054 36.5358 48.2573 36.4356" stroke="#003188" stroke-width="1.00172" stroke-linecap="round" stroke-linejoin="round"/>
        <path d="M82.4829 69.3087C83.5681 74.0836 83.9854 79.0087 83.735 83.9171C83.4345 89.4767 82.2658 95.0362 82.8168 100.579C83.2175 104.553 84.503 108.409 84.9037 112.383C85.9221 122.784 80.7632 132.818 80.3625 143.252" stroke="#003188" stroke-width="1.00172" stroke-linecap="round" stroke-linejoin="round"/>
        <path d="M19.3579 119.795C17.6716 127.058 18.5565 134.871 21.8455 141.566C32.9646 142.902 44.1671 144.237 55.3363 143.503C58.2747 143.302 61.2131 142.969 64.1514 143.219C69.3103 143.653 74.4525 145.907 79.5278 144.805" stroke="#003188" stroke-width="1.00172" stroke-linecap="round" stroke-linejoin="round"/>
        <path d="M40.6611 103.484C40.1269 113.284 41.2621 123.185 43.9668 132.617" stroke="#003188" stroke-width="1.00172" stroke-linecap="round" stroke-linejoin="round"/>
        <path d="M40.8948 103.868C54.5516 107.057 68.6257 108.459 82.6331 107.992" stroke="#003188" stroke-width="1.00172" stroke-linecap="round" stroke-linejoin="round"/>
        <path d="M44.4175 132.885C56.1877 135.756 68.4254 136.725 80.4961 135.706" stroke="#003188" stroke-width="1.00172" stroke-linecap="round" stroke-linejoin="round"/>
        <path d="M46.7048 111.682C52.1809 114.703 58.0911 116.89 64.2182 118.176" stroke="#003188" stroke-width="1.00172" stroke-linecap="round" stroke-linejoin="round"/>
        <path d="M57.0059 120.029C57.7905 120.213 58.5585 120.396 59.3432 120.597" stroke="#003188" stroke-width="1.00172" stroke-linecap="round" stroke-linejoin="round"/>
        <path d="M69.8279 133.569C71.5976 134.053 73.4675 134.103 75.2539 133.753" stroke="#003188" stroke-width="1.00172" stroke-linecap="round" stroke-linejoin="round"/>
        <path d="M76.6729 52.196C79.9284 51.9789 83.2508 53.1142 85.6716 55.2679C88.9105 58.1562 90.3797 62.497 91.4983 66.6875C93.7856 75.2856 95.1045 84.1342 95.4384 93.0161C95.572 96.472 95.405 100.295 93.0009 102.766C91.3981 99.8445 92.0493 96.255 92.8506 93.0328C94.9709 84.5515 97.926 76.2706 101.649 68.3571" stroke="#003188" stroke-width="1.00172" stroke-linecap="round" stroke-linejoin="round"/>
        <path d="M103.385 67.4556C104.554 69.075 105.756 70.7279 107.375 71.8631C110.247 73.8833 114.354 74.284 116.358 77.1722" stroke="#003188" stroke-width="1.00172" stroke-linecap="round" stroke-linejoin="round"/>
        <path d="M116.408 79.6097C115.673 84.9356 113.953 90.1278 111.349 94.8359C110.531 96.3218 109.613 97.791 109.229 99.4438C108.978 100.562 108.978 101.698 108.912 102.85C108.511 109.895 105.422 116.774 100.414 121.749C98.911 123.235 97.2081 124.587 95.2046 125.271C93.2012 125.956 90.8805 125.889 89.1108 124.721" stroke="#003188" stroke-width="1.00172" stroke-linecap="round" stroke-linejoin="round"/>
        <path d="M103.486 113.351C102.133 116.757 99.5121 119.662 96.2732 121.365" stroke="#003188" stroke-width="1.00172" stroke-linecap="round" stroke-linejoin="round"/>
        <path d="M103.202 65.7526C103.402 63.7826 103.402 61.7792 103.185 59.7924C103.118 59.158 103.035 58.4902 103.319 57.9058C103.602 57.3048 104.203 56.9375 104.788 56.6203C107.158 55.2847 109.613 54.1327 112.15 53.1644C112.518 53.0308 112.968 52.8972 113.269 53.1644C113.686 53.5317 113.369 54.1995 113.002 54.6169C112.017 55.7354 110.831 56.6871 109.513 57.3716C109.362 57.4551 109.195 57.5385 109.112 57.7055C109.045 57.8724 109.095 58.0561 109.145 58.2397C110.03 61.3785 109.913 64.7843 108.811 67.8396" stroke="#003188" stroke-width="1.00172" stroke-linecap="round" stroke-linejoin="round"/>
        <path d="M129.597 54.1661C130.132 53.9491 130.716 53.8322 131.3 53.8155C131.834 53.8155 132.486 53.9824 132.619 54.5C132.769 55.0342 132.269 55.5184 131.801 55.8356C130.449 56.7873 128.98 57.5719 127.444 58.173" stroke="#003188" stroke-width="1.00172" stroke-linecap="round" stroke-linejoin="round"/>
        <path d="M126.191 61.3617C128.729 59.8091 131.333 58.3399 133.971 56.9542" stroke="#003188" stroke-width="1.00172" stroke-linecap="round" stroke-linejoin="round"/>
        <path d="M124.639 64.3335C126.976 63.048 129.313 61.7625 131.651 60.4769" stroke="#003188" stroke-width="1.00172" stroke-linecap="round" stroke-linejoin="round"/>
        <path d="M123.62 67.6059C125.24 66.4038 127.026 65.4355 128.913 64.7343" stroke="#003188" stroke-width="1.00172" stroke-linecap="round" stroke-linejoin="round"/>
        <path d="M119.48 71.0784C118.945 72.8648 118.144 74.5678 117.109 76.1037" stroke="#003188" stroke-width="1.00172" stroke-linecap="round" stroke-linejoin="round"/>
        <path d="M33.0815 136.925C35.1518 139.112 37.7562 140.781 40.5944 141.75" stroke="#003188" stroke-width="1.00172" stroke-linecap="round" stroke-linejoin="round"/>
        <path d="M40.1936 137.793C41.2621 138.895 42.6144 139.73 44.0669 140.164" stroke="#003188" stroke-width="1.00172" stroke-linecap="round" stroke-linejoin="round"/>
        <path d="M74.9364 139.529C74.0849 140.013 73.3504 140.681 72.7827 141.466" stroke="#003188" stroke-width="1.00172" stroke-linecap="round" stroke-linejoin="round"/>
        <path d="M22.3462 143.403C24.6501 158.829 23.398 174.539 23.6818 190.15C23.9656 206.077 25.8689 221.954 26.0025 237.881C26.1193 249.969 25.2679 262.34 28.9242 273.86" stroke="#003188" stroke-width="1.00172" stroke-linecap="round" stroke-linejoin="round"/>
        <path d="M24.0325 274.494C34.3669 273.409 44.7681 272.925 55.1526 273.042C55.5199 273.042 55.9206 273.059 56.1877 273.292C56.4882 273.543 56.5049 273.96 56.5049 274.344C56.5049 276.281 56.5049 278.201 56.5049 280.137C56.5049 280.488 56.4882 280.905 56.1877 281.122C55.9873 281.273 55.7035 281.306 55.4197 281.323C45.703 282.091 35.9362 282.224 26.2029 281.74C25.7855 281.723 25.318 281.673 25.0175 281.406C24.717 281.139 24.6836 280.722 24.6502 280.338C24.5667 279.035 24.4665 277.733 24.3831 276.431" stroke="#003188" stroke-width="1.00172" stroke-linecap="round" stroke-linejoin="round"/>
        <path d="M51.4795 161.985C55.837 159.864 60.1945 157.761 64.5519 155.64" stroke="#003188" stroke-width="1.00172" stroke-linecap="round" stroke-linejoin="round"/>
        <path d="M58.2915 160.833C60.8459 168.145 63.4003 175.441 65.9547 182.753C67.7745 187.962 69.6109 193.221 70.429 198.681C71.1803 203.706 71.0801 208.815 71.6645 213.857C72.1987 218.431 73.3006 222.906 73.9684 227.447C76.0553 241.688 73.8683 256.764 79.2108 270.137" stroke="#003188" stroke-width="1.00172" stroke-linecap="round" stroke-linejoin="round"/>
        <path d="M76.6394 273.977C77.1069 276.531 77.5577 279.069 78.0251 281.623C78.1086 282.057 78.1921 282.525 78.526 282.825C78.9768 283.243 79.6947 283.159 80.3124 283.059C88.6433 281.64 97.1246 281.022 105.572 281.239C106.006 281.256 106.507 281.223 106.741 280.872C106.908 280.622 106.875 280.288 106.825 279.987C106.474 277.75 106.14 275.496 105.789 273.259C105.756 273.042 105.723 272.808 105.556 272.658C105.372 272.474 105.105 272.441 104.855 272.441C95.9058 271.857 86.8903 272.458 78.0919 274.194" stroke="#003188" stroke-width="1.00172" stroke-linecap="round" stroke-linejoin="round"/>
        <path d="M81.0637 146.508C85.104 156.392 89.1276 166.275 93.0677 176.192C96.6238 185.158 100.113 194.273 101.365 203.84C102.734 214.291 101.382 224.959 102.684 235.411C103.102 238.716 103.769 241.989 103.903 245.328C104.053 249.051 103.486 252.774 103.302 256.497C103.102 260.437 103.285 264.41 103.886 268.317" stroke="#003188" stroke-width="1.00172" stroke-linecap="round" stroke-linejoin="round"/>
        <path d="M54.9191 161.3C52.6485 174.306 53.2328 187.629 53.6335 200.835C54.3347 224.208 54.3514 247.615 53.7337 270.988" stroke="#003188" stroke-width="1.00172" stroke-linecap="round" stroke-linejoin="round"/>
        <path d="M50.1773 235.16C49.2257 242.857 46.7548 250.37 42.9482 257.131" stroke="#003188" stroke-width="1.00172" stroke-linecap="round" stroke-linejoin="round"/>
        <path d="M50.8451 250.854C49.1255 254.794 47.4059 258.734 45.6863 262.674" stroke="#003188" stroke-width="1.00172" stroke-linecap="round" stroke-linejoin="round"/>
        <path d="M28.0559 218.916C31.2781 219.967 34.8676 219.817 37.9896 218.482" stroke="#003188" stroke-width="1.00172" stroke-linecap="round" stroke-linejoin="round"/>
        <path d="M99.128 209.9C97.4918 212.672 95.672 215.359 93.6853 217.897" stroke="#003188" stroke-width="1.00172" stroke-linecap="round" stroke-linejoin="round"/>
        <path d="M84.9537 247.582C84.2358 248.567 84.336 249.919 84.553 251.121C85.5047 256.63 88.2427 261.806 92.2496 265.696" stroke="#003188" stroke-width="1.00172" stroke-linecap="round" stroke-linejoin="round"/>
        <path d="M84.77 263.275C86.0222 264.895 87.2743 266.514 88.5265 268.133" stroke="#003188" stroke-width="1.00172" stroke-linecap="round" stroke-linejoin="round"/>
        <path d="M80.8635 275.713C86.9239 275.179 93.0177 274.995 99.1115 275.162" stroke="#003188" stroke-width="1.00172" stroke-linecap="round" stroke-linejoin="round"/>
        <path d="M28.0728 277.85C34.1499 277.95 40.227 278.05 46.3208 278.134" stroke="#003188" stroke-width="1.00172" stroke-linecap="round" stroke-linejoin="round"/>
        <path d="M28.1897 282.992C25.7355 284.261 23.1644 285.263 20.4932 285.981C15.8519 287.233 10.6095 287.834 7.33724 291.34C5.38388 293.444 4.43225 296.449 4.81624 299.304" stroke="#003188" stroke-width="1.00172" stroke-linecap="round" stroke-linejoin="round"/>
        <path d="M4.83301 299.521C21.4783 299.521 38.1402 299.521 54.7854 299.521" stroke="#003188" stroke-width="1.00172" stroke-linecap="round" stroke-linejoin="round"/>
        <path d="M54.6016 282.274C54.6016 287.884 54.6016 293.51 54.6016 299.12" stroke="#003188" stroke-width="1.00172" stroke-linecap="round" stroke-linejoin="round"/>
        <path d="M5.43384 296.95C21.4947 296.95 37.5557 296.95 53.5999 296.95" stroke="#003188" stroke-width="1.00172" stroke-linecap="round" stroke-linejoin="round"/>
        <path d="M20.6436 287.7C23.0978 288.018 25.552 288.335 28.0229 288.652" stroke="#003188" stroke-width="1.00172" stroke-linecap="round" stroke-linejoin="round"/>
        <path d="M25.7688 286.248C27.1712 286.331 28.5903 286.415 29.9927 286.515" stroke="#003188" stroke-width="1.00172" stroke-linecap="round" stroke-linejoin="round"/>
        <path d="M22.2628 283.193C21.6284 281.339 19.9756 279.87 18.0556 279.47C18.3227 281.039 19.0907 282.525 20.1926 283.66C18.4062 283.643 16.6365 283.627 14.8501 283.61" stroke="#003188" stroke-width="1.00172" stroke-linecap="round" stroke-linejoin="round"/>
        <path d="M106.725 280.855C109.279 281.89 111.166 282.241 113.887 282.708C118.628 283.543 123.887 283.66 127.477 286.866C129.614 288.786 130.833 291.691 130.699 294.562" stroke="#003188" stroke-width="1.00172" stroke-linecap="round" stroke-linejoin="round"/>
        <path d="M130.682 294.796C114.104 296.298 97.5086 297.784 80.9302 299.287" stroke="#003188" stroke-width="1.00172" stroke-linecap="round" stroke-linejoin="round"/>
        <path d="M79.678 283.126C80.1788 288.719 80.5962 293.277 81.0971 298.869" stroke="#003188" stroke-width="1.00172" stroke-linecap="round" stroke-linejoin="round"/>
        <path d="M129.864 292.292C113.87 293.727 97.876 295.18 81.8818 296.616" stroke="#003188" stroke-width="1.00172" stroke-linecap="round" stroke-linejoin="round"/>
        <path d="M113.887 284.445C111.466 284.979 109.045 285.513 106.624 286.048" stroke="#003188" stroke-width="1.00172" stroke-linecap="round" stroke-linejoin="round"/>
        <path d="M108.644 283.46C107.242 283.677 105.856 283.894 104.454 284.094" stroke="#003188" stroke-width="1.00172" stroke-linecap="round" stroke-linejoin="round"/>
        <path d="M111.867 280.104C112.334 278.201 113.837 276.598 115.723 276.014C115.59 277.6 114.972 279.152 113.97 280.388C115.74 280.204 117.51 280.037 119.279 279.854" stroke="#003188" stroke-width="1.00172" stroke-linecap="round" stroke-linejoin="round"/>
        <path d="M161.786 104.786C168.714 116.44 171.753 129.946 174.674 143.186" stroke="#003188" stroke-width="1.00172" stroke-linecap="round" stroke-linejoin="round"/>
        <path d="M173.189 115.405C176.244 124.871 178.247 134.721 180.318 144.471" stroke="#003188" stroke-width="1.00172" stroke-linecap="round" stroke-linejoin="round"/>
        <path d="M169.299 107.574C170.117 108.71 170.818 109.912 171.436 111.147" stroke="#003188" stroke-width="1.00172" stroke-linecap="round" stroke-linejoin="round"/>
        <path d="M215.177 143.503C212.94 151.533 211.755 159.848 211.705 168.195" stroke="#003188" stroke-width="1.00172" stroke-linecap="round" stroke-linejoin="round"/>
        <path d="M237.499 59.0912C238.35 58.2731 239.235 57.4884 240.137 56.7205" stroke="#003188" stroke-width="1.00172" stroke-linecap="round" stroke-linejoin="round"/>
        <path d="M220.687 85.6869C221.772 82.3812 223.124 79.159 224.727 76.0704C226.346 72.9651 228.2 69.9933 230.303 67.2052C231.472 65.6358 232.724 64.1165 234.043 62.6473" stroke="#003188" stroke-width="1.00172" stroke-linecap="round" stroke-linejoin="round"/>
        <path d="M225.195 86.3881C229.702 79.3594 235.479 73.1654 242.174 68.1902" stroke="#003188" stroke-width="1.00172" stroke-linecap="round" stroke-linejoin="round"/>
        <path d="M154.456 221.936L154.49 222.153L156.911 239.066L158.914 253.173L159.866 259.885L162.837 280.687L163.338 284.16L165.075 296.264" stroke="#003188" stroke-width="1.00172" stroke-linecap="round" stroke-linejoin="round"/>
        <path d="M214.643 221.937L211.638 243.04L210.753 249.168L208.533 264.711L206.613 278.267L205.461 286.281L204.042 296.265" stroke="#003188" stroke-width="1.00172" stroke-linecap="round" stroke-linejoin="round"/>
        <path d="M204.042 296.265C201.32 297.584 198.516 298.619 195.627 299.354C192.906 300.055 190.151 300.489 187.363 300.656C183.506 300.906 179.633 300.639 175.827 299.888C173.473 299.42 171.152 298.753 168.881 297.901C167.579 297.417 166.31 296.866 165.058 296.265" stroke="#003188" stroke-width="1.00172" stroke-linecap="round" stroke-linejoin="round"/>
        <path d="M165.074 293.911C177.362 299.905 191.754 299.905 204.041 293.911" stroke="#003188" stroke-width="1.00172" stroke-linecap="round" stroke-linejoin="round"/>
        <path d="M214.626 221.821C214.075 221.988 213.524 222.171 212.956 222.321C208.014 223.791 202.872 224.842 197.63 225.494C194.691 225.861 191.736 226.111 188.764 226.211C185.125 226.345 181.469 226.312 177.829 226.061C174.824 225.861 171.819 225.544 168.864 225.076C164.022 224.325 159.28 223.24 154.723 221.787" stroke="#003188" stroke-width="1.00172" stroke-linecap="round" stroke-linejoin="round"/>
        <path d="M157.729 242.823L171.536 226.863" stroke="#003188" stroke-width="1.00172" stroke-linecap="round" stroke-linejoin="round"/>
        <path d="M187.647 227.547C183.089 232.89 162.32 257.332 159.882 259.886" stroke="#003188" stroke-width="1.00172" stroke-linecap="round" stroke-linejoin="round"/>
        <path d="M211.02 224.609C208.967 227.046 163.555 279.97 162.837 280.688" stroke="#003188" stroke-width="1.00172" stroke-linecap="round" stroke-linejoin="round"/>
        <path d="M210.753 249.168C198.298 263.592 183.089 281.306 170.684 295.831" stroke="#003188" stroke-width="1.00172" stroke-linecap="round" stroke-linejoin="round"/>
        <path d="M190.485 297.033C195.443 291.49 201.637 283.727 206.612 278.268" stroke="#003188" stroke-width="1.00172" stroke-linecap="round" stroke-linejoin="round"/>
        <path d="M163.338 284.161C166.56 288.151 169.732 292.325 173.005 296.332" stroke="#003188" stroke-width="1.00172" stroke-linecap="round" stroke-linejoin="round"/>
        <path d="M158.914 253.174C159.482 254.21 190.435 292.659 193.39 296.516" stroke="#003188" stroke-width="1.00172" stroke-linecap="round" stroke-linejoin="round"/>
        <path d="M204.409 284.962C202.288 282.474 159.882 228.882 156.577 224.775" stroke="#003188" stroke-width="1.00172" stroke-linecap="round" stroke-linejoin="round"/>
        <path d="M208.533 264.711C205.143 260.353 179.249 228.215 178.665 227.213" stroke="#003188" stroke-width="1.00172" stroke-linecap="round" stroke-linejoin="round"/>
        <path d="M196.545 226.312C200.268 231.17 207.614 240.052 211.371 244.877" stroke="#003188" stroke-width="1.00172" stroke-linecap="round" stroke-linejoin="round"/>
        <path d="M15.2007 308.319C16.9704 307.601 19.0406 307.601 20.8103 308.336" stroke="#003188" stroke-width="1.00172" stroke-linecap="round" stroke-linejoin="round"/>
        <path d="M37.2551 308.636C39.3587 307.718 41.8463 307.735 43.95 308.67" stroke="#003188" stroke-width="1.00172" stroke-linecap="round" stroke-linejoin="round"/>
        <path d="M59.2598 305.23C60.6956 304.429 62.4653 304.229 64.0346 304.696" stroke="#003188" stroke-width="1.00172" stroke-linecap="round" stroke-linejoin="round"/>
        <path d="M66.2549 308.336C67.7742 307.618 69.5606 307.484 71.18 307.969C71.6809 308.119 72.1817 308.319 72.716 308.302C73.3504 308.286 73.918 307.952 74.5358 307.802C75.9883 307.468 77.4575 308.252 78.9433 308.186C79.6278 308.152 80.2957 307.935 80.9635 307.802C82.4827 307.501 84.0688 307.568 85.538 308.035" stroke="#003188" stroke-width="1.00172" stroke-linecap="round" stroke-linejoin="round"/>
        <path d="M162.27 309.204C163.522 308.503 165.092 308.386 166.444 308.887C167.262 309.204 168.03 309.721 168.898 309.822C170.184 309.972 171.486 309.154 172.738 309.471C173.239 309.605 173.706 309.922 174.224 309.972C174.775 310.022 175.309 309.772 175.843 309.605C177.329 309.12 178.999 309.237 180.401 309.939" stroke="#003188" stroke-width="1.00172" stroke-linecap="round" stroke-linejoin="round"/>
        <path d="M196.512 311.808C198.148 311.291 199.968 311.391 201.554 312.059" stroke="#003188" stroke-width="1.00172" stroke-linecap="round" stroke-linejoin="round"/>
        <path d="M207.147 307.718C208.549 307.317 210.119 307.568 211.337 308.386" stroke="#003188" stroke-width="1.00172" stroke-linecap="round" stroke-linejoin="round"/>
        <path d="M211.054 313.344C213.391 312.476 216.012 312.426 218.366 313.244" stroke="#003188" stroke-width="1.00172" stroke-linecap="round" stroke-linejoin="round"/>
        <path d="M111.449 52.6468L119.146 39.2404" stroke="#003188" stroke-width="1.00172" stroke-linecap="round" stroke-linejoin="round"/>
        <path d="M120.515 38.4391L133.971 43.7816" stroke="#003188" stroke-width="1.00172" stroke-linecap="round" stroke-linejoin="round"/>
        <path d="M132.652 45.4678L119.48 69.843" stroke="#003188" stroke-width="1.00172" stroke-linecap="round" stroke-linejoin="round"/>
        <path d="M134.606 44.8167L120.999 70.1936" stroke="#003188" stroke-width="1.00172" stroke-linecap="round" stroke-linejoin="round"/>
        <path d="M110.715 66.17L117.226 69.3088" stroke="#003188" stroke-width="1.00172" stroke-linecap="round" stroke-linejoin="round"/>
        <path d="M122.835 41.5611L126.425 42.88" stroke="#003188" stroke-width="1.00172" stroke-linecap="round" stroke-linejoin="round"/>
        <path d="M14.2825 203.523C13.7482 203.523 14.2324 204.591 14.583 204.19C14.9503 203.873 13.9986 203.422 13.9819 203.907" stroke="#003188" stroke-width="1.00172" stroke-linecap="round" stroke-linejoin="round"/>
        <path d="M35.7524 30.9094C35.2182 30.9094 35.7023 31.9779 36.0529 31.5772C36.4202 31.26 35.4686 30.8093 35.4519 31.2934" stroke="#003188" stroke-width="1.00172" stroke-linecap="round" stroke-linejoin="round"/>
        <path d="M63.3835 139.429C62.9828 139.463 62.6322 139.796 62.5654 140.197C62.8659 140.448 63.4169 140.147 63.3668 139.763" stroke="#003188" stroke-width="1.00172" stroke-linecap="round" stroke-linejoin="round"/>
        <path d="M108.077 166.158C107.86 165.791 107.342 166.576 107.776 166.626C108.11 166.442 108.294 166.008 108.16 165.657" stroke="#003188" stroke-width="1.00172" stroke-linecap="round" stroke-linejoin="round"/>
        <path d="M139.397 229C139.397 228.966 139.381 228.933 139.381 228.899C139.264 229.183 139.147 229.467 139.03 229.751C139.03 229.751 139.047 229.751 139.047 229.734C138.746 229.701 138.446 229.651 138.128 229.617C138.095 229.567 138.062 229.517 138.028 229.45C138.145 229.167 138.262 228.883 138.379 228.599C138.379 228.599 138.362 228.599 138.362 228.616C138.663 228.649 138.963 228.699 139.28 228.733C139.264 228.716 139.23 228.682 139.214 228.666C138.529 227.981 137.461 229.05 138.145 229.734C138.162 229.751 138.195 229.784 138.212 229.801C138.446 230.035 138.83 230.085 139.13 229.918C139.13 229.918 139.147 229.918 139.147 229.901C139.414 229.751 139.614 229.35 139.497 229.05C139.414 228.849 139.331 228.716 139.214 228.549C139.013 228.282 138.563 228.282 138.295 228.432C138.295 228.432 138.279 228.432 138.279 228.449C137.978 228.616 137.861 228.983 137.928 229.3C137.928 229.334 137.945 229.367 137.945 229.4C138.179 230.335 139.614 229.935 139.397 229Z" fill="#003188"/>
        <path d="M224.326 254.677C224.326 254.644 224.31 254.61 224.31 254.577C224.193 254.861 224.076 255.144 223.959 255.428C223.959 255.428 223.976 255.428 223.976 255.412C223.675 255.378 223.375 255.328 223.058 255.295C223.024 255.245 222.991 255.195 222.957 255.128C223.074 254.844 223.191 254.56 223.308 254.276C223.308 254.276 223.291 254.276 223.291 254.293C223.592 254.326 223.892 254.376 224.21 254.41C224.193 254.393 224.16 254.36 224.143 254.343C223.458 253.659 222.39 254.727 223.074 255.412C223.091 255.428 223.124 255.462 223.141 255.478C223.375 255.712 223.759 255.762 224.059 255.595C224.059 255.595 224.076 255.595 224.076 255.579C224.343 255.428 224.544 255.028 224.427 254.727C224.343 254.527 224.26 254.393 224.143 254.226C223.943 253.959 223.492 253.959 223.225 254.109C223.225 254.109 223.208 254.109 223.208 254.126C222.907 254.293 222.791 254.66 222.857 254.978C222.857 255.011 222.874 255.044 222.874 255.078C223.108 256.013 224.56 255.629 224.326 254.677Z" fill="#003188"/>
        <path d="M157.679 159.647C159.549 166.041 161.418 172.436 163.305 178.83C164.006 181.201 164.707 183.588 165.743 185.825C165.96 186.276 166.21 186.744 166.644 186.961C167.078 187.178 167.612 187.094 168.08 186.994C174.508 185.775 180.835 184.089 187.012 181.952C183.757 173.721 184.642 164.422 182.288 155.891C182.204 155.607 182.104 155.306 181.87 155.173C181.67 155.056 181.419 155.089 181.202 155.106C174.491 155.857 167.813 156.959 161.218 158.428" stroke="#FF3B0D" stroke-width="1.00172" stroke-linecap="round" stroke-linejoin="round"/>
        <path d="M160.433 160.782C164.357 161.901 168.147 163.454 171.703 165.407C172.671 165.941 173.656 166.542 174.157 167.527C175.125 169.431 173.79 171.634 172.654 173.438C170.634 176.626 169.065 180.082 167.996 183.705" stroke="#FF3B0D" stroke-width="1.00172" stroke-linecap="round" stroke-linejoin="round"/>
        <path d="M172.154 163.621C173.806 161.584 175.71 159.764 177.797 158.195" stroke="#FF3B0D" stroke-width="1.00172" stroke-linecap="round" stroke-linejoin="round"/>
        <path d="M173.773 177.144C177.079 176.994 180.418 177.611 183.44 178.947" stroke="#FF3B0D" stroke-width="1.00172" stroke-linecap="round" stroke-linejoin="round"/>
        <path d="M199.25 170.065C198.198 177.929 197.48 185.842 197.13 193.756C197.096 194.457 197.08 195.208 197.413 195.843C197.664 196.327 198.081 196.677 198.499 197.011C202.522 200.334 206.746 203.406 211.12 206.244C213.007 199.148 214.81 192.019 216.563 184.891C216.697 184.306 216.847 183.705 216.68 183.121C216.496 182.486 215.979 182.036 215.461 181.618C210.82 177.878 204.993 175.625 201.053 171.167" stroke="#FF3B0D" stroke-width="1.00172" stroke-linecap="round" stroke-linejoin="round"/>
        <path d="M200.636 175.808C203.307 180.9 204.242 186.71 205.143 192.387C207.948 189.315 211.054 186.51 214.393 184.039" stroke="#FF3B0D" stroke-width="1.00172" stroke-linecap="round" stroke-linejoin="round"/>
        <path d="M202.055 189.665C200.853 191.302 199.651 192.954 198.465 194.591" stroke="#FF3B0D" stroke-width="1.00172" stroke-linecap="round" stroke-linejoin="round"/>
        <path d="M209.584 192.687C209.634 195.425 209.851 198.163 210.235 200.868" stroke="#FF3B0D" stroke-width="1.00172" stroke-linecap="round" stroke-linejoin="round"/>
        <path d="M210.62 93.3166C207.765 98.3419 205.11 103.484 202.673 108.726C200.652 113.067 198.766 117.542 198.048 122.283C197.981 122.7 197.948 123.185 198.265 123.468C198.449 123.635 198.699 123.669 198.933 123.719C206.863 125.088 214.51 128.043 221.305 132.334C221.805 127.742 222.907 123.218 224.544 118.894C226.964 112.5 230.571 106.573 232.607 100.045C232.824 99.3436 233.008 98.5756 232.674 97.9245C232.34 97.2734 231.589 96.9729 230.888 96.8059C227.949 96.0713 224.861 96.6056 221.839 96.472C219.184 96.3551 216.546 95.7207 214.126 94.6188" stroke="#FF3B0D" stroke-width="1.00172" stroke-linecap="round" stroke-linejoin="round"/>
        <path d="M211.471 94.3184C212.907 97.9913 214.092 101.764 215.027 105.604C215.194 106.256 215.344 106.94 215.194 107.591C214.994 108.493 214.276 109.161 213.591 109.778C209.034 113.852 204.376 117.809 199.617 121.649" stroke="#FF3B0D" stroke-width="1.00172" stroke-linecap="round" stroke-linejoin="round"/>
        <path d="M211.454 115.405C214.593 119.411 217.298 123.769 219.485 128.36" stroke="#FF3B0D" stroke-width="1.00172" stroke-linecap="round" stroke-linejoin="round"/>
        <path d="M216.88 103.417C221.305 101.815 225.829 100.446 230.387 99.3102" stroke="#FF3B0D" stroke-width="1.00172" stroke-linecap="round" stroke-linejoin="round"/>
        <path d="M154.624 220.602C152.954 216.662 151.284 212.722 149.615 208.798C149.431 208.381 149.264 207.947 149.348 207.496C149.498 206.678 150.416 206.277 151.218 206.027C157.462 204.057 163.789 202.32 170.184 200.868C170.451 200.801 170.751 200.751 170.985 200.868C171.235 201.002 171.369 201.285 171.469 201.552C174.491 209.082 177.513 216.612 180.518 224.141" stroke="#FF3B0D" stroke-width="1.00172" stroke-linecap="round" stroke-linejoin="round"/>
        <path d="M152.019 207.312C157.228 209.516 162.42 211.77 167.579 214.091C167.98 214.274 168.431 214.508 168.531 214.942C168.598 215.209 168.481 215.493 168.38 215.76C167.429 218.131 166.327 220.435 165.091 222.655" stroke="#FF3B0D" stroke-width="1.00172" stroke-linecap="round" stroke-linejoin="round"/>
        <path d="M166.427 210.351C167.462 208.197 168.514 206.06 169.549 203.906" stroke="#FF3B0D" stroke-width="1.00172" stroke-linecap="round" stroke-linejoin="round"/>
        <path d="M170.45 219.633C172.387 220.735 174.357 221.754 176.361 222.689" stroke="#FF3B0D" stroke-width="1.00172" stroke-linecap="round" stroke-linejoin="round"/>
        <path d="M175.726 208.281C180.234 209.216 184.692 210.468 189.033 212.037C189.3 212.137 189.567 212.238 189.717 212.488C189.834 212.688 189.817 212.922 189.817 213.156C189.634 216.795 189.166 220.418 188.415 223.991" stroke="#FF3B0D" stroke-width="1.00172" stroke-linecap="round" stroke-linejoin="round"/>
        <path d="M187.596 213.757C185.443 215.376 183.456 217.179 181.636 219.166" stroke="#FF3B0D" stroke-width="1.00172" stroke-linecap="round" stroke-linejoin="round"/>
        <path d="M183.44 208.264C183.373 207.63 183.306 206.995 183.239 206.361C186.879 205.676 190.602 205.409 194.308 205.559C194.692 205.576 195.093 205.609 195.41 205.81C195.894 206.11 196.078 206.728 196.228 207.279C197.514 212.488 198.215 218.315 198.332 223.674" stroke="#FF3B0D" stroke-width="1.00172" stroke-linecap="round" stroke-linejoin="round"/>
        <path d="M190.919 218.565C193.173 219.951 196.228 222.054 198.332 223.674" stroke="#FF3B0D" stroke-width="1.00172" stroke-linecap="round" stroke-linejoin="round"/>
        <path d="M191.052 215.927C192.288 213.473 193.54 211.035 194.776 208.581" stroke="#FF3B0D" stroke-width="1.00172" stroke-linecap="round" stroke-linejoin="round"/>
        <path d="M198.332 213.824C203.424 215.109 208.533 216.395 213.625 217.68C213.792 217.714 213.975 217.78 214.059 217.914C214.126 218.031 214.126 218.164 214.126 218.298C214.109 219.133 213.975 219.951 213.742 220.752" stroke="#FF3B0D" stroke-width="1.00172" stroke-linecap="round" stroke-linejoin="round"/>
        <path d="M199.116 215.961C201.37 218.181 203.658 220.351 205.978 222.488" stroke="#FF3B0D" stroke-width="1.00172" stroke-linecap="round" stroke-linejoin="round"/>
        <path d="M205.978 222.422C208.149 221.737 210.302 220.952 212.406 220.068" stroke="#FF3B0D" stroke-width="1.00172" stroke-linecap="round" stroke-linejoin="round"/>
        <path d="M214.242 291.44C217.882 294.195 221.588 296.866 225.345 299.454" stroke="#FF3B0D" stroke-width="1.00172" stroke-linecap="round" stroke-linejoin="round"/>
        <path d="M214.309 290.973C224.193 287.634 234.16 284.528 244.194 281.64C246.899 284.044 249.62 286.465 252.325 288.869C243.309 292.191 234.377 295.697 225.529 299.404" stroke="#FF3B0D" stroke-width="1.00172" stroke-linecap="round" stroke-linejoin="round"/>
        <path d="M214.593 291.34C219.902 291.908 225.228 292.175 230.57 292.141C231.806 292.141 233.058 292.108 234.277 291.824C236.664 291.273 238.734 289.754 240.371 287.934C242.007 286.114 243.242 283.977 244.461 281.857" stroke="#FF3B0D" stroke-width="1.00172" stroke-linecap="round" stroke-linejoin="round"/>
        <path d="M230.003 292.342C228.534 294.646 227.065 296.95 225.595 299.254" stroke="#FF3B0D" stroke-width="1.00172" stroke-linecap="round" stroke-linejoin="round"/>
        <path d="M241.256 287.55C244.378 287.7 247.516 287.951 250.622 288.285C250.805 288.301 251.039 288.351 251.089 288.552" stroke="#FF3B0D" stroke-width="1.00172" stroke-linecap="round" stroke-linejoin="round"/>
        <path d="M106.224 36.3855C107.426 37.4039 108.544 38.5058 109.596 39.6745" stroke="#FF3B0D" stroke-width="1.00172" stroke-linecap="round" stroke-linejoin="round"/>
        <path d="M111.232 30.8928C111.867 32.5456 112.434 34.2318 112.968 35.9181" stroke="#FF3B0D" stroke-width="1.00172" stroke-linecap="round" stroke-linejoin="round"/>
        <path d="M116.374 34.549C116.658 32.2117 116.942 29.8743 117.226 27.5203" stroke="#FF3B0D" stroke-width="1.00172" stroke-linecap="round" stroke-linejoin="round"/>
        <path d="M111.799 60.6925C112.438 59.5273 113.309 58.4105 113.309 58.4105" stroke="#FF3B0D" stroke-width="1.00172" stroke-linecap="round" stroke-linejoin="round"/>
        <path d="M113.309 61.4445L112.095 60.8377" stroke="#FF3B0D" stroke-width="1.00172" stroke-linecap="round" stroke-linejoin="round"/>
        <path d="M127.466 47.7801C126.827 48.9453 125.956 50.062 125.956 50.062" stroke="#FF3B0D" stroke-width="1.00172" stroke-linecap="round" stroke-linejoin="round"/>
        <path d="M125.956 47.028L127.17 47.6348" stroke="#FF3B0D" stroke-width="1.00172" stroke-linecap="round" stroke-linejoin="round"/>
        <path d="M118.859 64.8907C119.585 63.778 120.159 62.4833 120.159 62.4833" stroke="#FF3B0D" stroke-width="1.00172" stroke-linecap="round" stroke-linejoin="round"/>
        <path d="M117.483 63.9142L118.591 64.6982" stroke="#FF3B0D" stroke-width="1.00172" stroke-linecap="round" stroke-linejoin="round"/>
        <path d="M120.406 43.5819C119.68 44.6946 119.106 45.9893 119.106 45.9893" stroke="#FF3B0D" stroke-width="1.00172" stroke-linecap="round" stroke-linejoin="round"/>
        <path d="M121.781 44.5584L120.674 43.7744" stroke="#FF3B0D" stroke-width="1.00172" stroke-linecap="round" stroke-linejoin="round"/>
    </g>
    <defs>
        <clipPath id="clip0">
            <rect width="252.934" height="315.542" fill="white" transform="translate(0.442139 0.156677)"/>
        </clipPath>
    </defs>
</svg>
