<svg width="100%" height="100%" viewBox="0 0 384 387" fill="none"
    xmlns="http://www.w3.org/2000/svg">
    <path fill-rule="evenodd" clip-rule="evenodd" d="M258.389 99.4889C265.726 113.38 271.435 127.551 280.126 140.637C290.816 156.734 312.526 166.507 315.568 185.59C318.528 204.168 302.326 220.051 295.581 237.613C287.969 257.431 292.385 287.589 273.035 296.323C251.712 305.947 229.597 277.335 206.21 277.951C187.665 278.439 174.023 297.092 155.617 299.414C133.688 302.181 108.854 304.866 90.5017 292.549C72.3278 280.352 61.6338 257.124 60.0744 235.292C58.5448 213.878 75.8017 196.155 82.1516 175.647C86.9153 160.26 87.2303 144.229 92.9328 129.166C99.1754 112.676 101.825 91.4829 117.248 82.9371C133.118 74.1434 154.047 92.6512 170.911 85.9578C193.693 76.9153 202.484 35.7443 226.706 39.491C249.341 42.9921 247.693 79.2363 258.389 99.4889Z" fill="#F1F6FF" fill-opacity="0.35"/>
</svg>
